<?xml version="1.0" encoding="UTF-8"?>
<svg version="1.1" xmlns="http://www.w3.org/2000/svg" width="626" height="376">
<path d="M0 0 C206.58 0 413.16 0 626 0 C626 124.08 626 248.16 626 376 C419.42 376 212.84 376 0 376 C0 251.92 0 127.84 0 0 Z " fill="#FEFEFE" transform="translate(0,0)"/>
<path d="M0 0 C78 0 78 0 90 6 C90 35.04 90 64.08 90 94 C77.48482084 99.36364821 67.17742421 100.41477665 53.75 100.1875 C48.5525 100.125625 43.355 100.06375 38 100 C38 113.2 38 126.4 38 140 C25.46 140 12.92 140 0 140 C0 93.8 0 47.6 0 0 Z " fill="#313131" transform="translate(299,118)"/>
<path d="M0 0 C1.32 0.33 2.64 0.66 4 1 C4 15.52 4 30.04 4 45 C-0.69475512 45 -0.96226471 44.46939999 -4.125 41.3125 C-13.16400931 33.09123628 -20.67722496 31.03901116 -32.703125 31.578125 C-39.7207686 32.12170227 -46.29349826 34.41663088 -51.55859375 39.26171875 C-60.73524392 50.32841069 -62.99768668 60.96904135 -62 75 C-60.59288874 83.39536971 -56.55772705 92.14338761 -50.125 97.875 C-40.89365066 104.15231755 -33.19218022 105.80281461 -22 105 C-12.24911773 103.13065987 -5.95022397 97.31215073 0.65625 90.22265625 C2 89 2 89 4 89 C4 104.18 4 119.36 4 135 C-15.88765557 140.84931046 -15.88765557 140.84931046 -22 141 C-23.30066406 141.061875 -24.60132813 141.12375 -25.94140625 141.1875 C-45.75785651 141.87105035 -63.73936686 137.06353207 -78.5625 123.4375 C-80.41018503 121.65549311 -82.20528371 119.8365837 -84 118 C-84.59167969 117.44054687 -85.18335938 116.88109375 -85.79296875 116.3046875 C-91.50863681 110.45110788 -94.69251537 102.36366017 -98 95 C-98.69222656 93.52466797 -98.69222656 93.52466797 -99.3984375 92.01953125 C-105.15690037 77.21497246 -104.10354221 57.1410892 -98.54296875 42.4375 C-93.95290231 32.2115292 -89.02419404 23.90199819 -81 16 C-80.28972656 15.29101562 -79.57945312 14.58203125 -78.84765625 13.8515625 C-57.52499204 -6.27579865 -27.09055269 -9.06659626 0 0 Z " fill="#323232" transform="translate(286,120)"/>
<path d="M0 0 C12.87 0 25.74 0 39 0 C39 46.2 39 92.4 39 140 C26.13 140 13.26 140 0 140 C0 93.8 0 47.6 0 0 Z " fill="#343434" transform="translate(398,118)"/>
<path d="M0 0 C27.40282686 -0.49823322 27.40282686 -0.49823322 36 4.875 C41.22003459 10.42128675 41.6595821 15.10396362 41.46484375 22.54296875 C40.75339838 27.83397 39.01912596 30.59656159 35 34 C27.52770524 38.29569246 20.29956446 38.50268103 11.875 38.25 C7.95625 38.1675 4.0375 38.085 0 38 C0 25.46 0 12.92 0 0 Z " fill="#F9F9F9" transform="translate(337,150)"/>
</svg>
