<?xml version="1.0" encoding="UTF-8"?>
<svg version="1.1" xmlns="http://www.w3.org/2000/svg" width="612" height="612">
<path d="M0 0 C201.96 0 403.92 0 612 0 C612 201.96 612 403.92 612 612 C410.04 612 208.08 612 0 612 C0 410.04 0 208.08 0 0 Z " fill="#FEFEFE" transform="translate(0,0)"/>
<path d="M0 0 C1.2299469 -0.00642014 1.2299469 -0.00642014 2.48474121 -0.01296997 C5.12139423 -0.02290961 7.75786315 -0.0230328 10.39453125 -0.01953125 C11.29475006 -0.01859467 12.19496887 -0.01765808 13.12246704 -0.01669312 C43.89317656 0.0529262 71.40128895 5.24375716 100.20703125 16.16796875 C99.54918162 19.4647784 98.31282552 22.00914797 96.64453125 24.91796875 C96.18949219 25.7171875 95.73445313 26.51640625 95.265625 27.33984375 C94.91628906 27.943125 94.56695312 28.54640625 94.20703125 29.16796875 C94.99400391 29.33619141 94.99400391 29.33619141 95.796875 29.5078125 C111.07042539 33.39608739 125.95907853 42.2831807 135.20703125 55.16796875 C135.20703125 56.15796875 135.20703125 57.14796875 135.20703125 58.16796875 C133.30859375 59.9921875 133.30859375 59.9921875 130.83203125 61.85546875 C130.01992188 62.47808594 129.2078125 63.10070312 128.37109375 63.7421875 C126.20703125 65.16796875 126.20703125 65.16796875 124.20703125 65.16796875 C124.20703125 65.82796875 124.20703125 66.48796875 124.20703125 67.16796875 C122.59765625 68.82421875 122.59765625 68.82421875 120.45703125 70.66796875 C119.41289063 71.580625 119.41289063 71.580625 118.34765625 72.51171875 C116.20703125 74.16796875 116.20703125 74.16796875 114.01953125 75.25390625 C111.66499591 76.44132278 111.1659249 77.77073461 110.20703125 80.16796875 C109.54703125 80.16796875 108.88703125 80.16796875 108.20703125 80.16796875 C108.20703125 80.82796875 108.20703125 81.48796875 108.20703125 82.16796875 C106.58234133 83.89747737 104.92122599 85.52934176 103.20703125 87.16796875 C97.62005783 92.64006982 92.26376969 98.20283418 87.20703125 104.16796875 C86.29428812 105.23959806 85.38152621 106.31121137 84.46875 107.3828125 C81.70417291 110.63579515 78.94538606 113.89284607 76.20703125 117.16796875 C75.45808594 118.06128906 74.70914063 118.95460938 73.9375 119.875 C72.0409465 122.134449 72.0409465 122.134449 71.20703125 125.16796875 C72.38265625 125.63203125 72.38265625 125.63203125 73.58203125 126.10546875 C76.20703125 127.16796875 76.20703125 127.16796875 78.20703125 128.16796875 C78.05621094 128.79960937 77.90539062 129.43125 77.75 130.08203125 C77.21228931 134.18281391 77.10273643 137.45522127 79.41845703 141.046875 C85.96615953 149.61077917 85.96615953 149.61077917 95.20703125 154.16796875 C104.08410598 154.69158221 113.4746834 154.55789021 121.79296875 151.08984375 C125.26757763 149.76297046 127.65024314 150.2458385 131.20703125 151.16796875 C133.79515285 153.42213917 134.14945768 154.77317854 134.64453125 158.16796875 C134.09443339 161.94006836 133.11173158 162.76424492 130.20703125 165.16796875 C127.26171875 166.3984375 127.26171875 166.3984375 124.08203125 167.35546875 C120.0566398 168.54300735 120.0566398 168.54300735 116.20703125 170.16796875 C114.50339303 170.39418956 112.79374424 170.57685348 111.08203125 170.73046875 C110.17195313 170.81425781 109.261875 170.89804688 108.32421875 170.984375 C107.62554687 171.04496094 106.926875 171.10554687 106.20703125 171.16796875 C106.965 171.99941406 106.965 171.99941406 107.73828125 172.84765625 C108.38796875 173.57210937 109.03765625 174.2965625 109.70703125 175.04296875 C110.35671875 175.76226562 111.00640625 176.4815625 111.67578125 177.22265625 C113.20703125 179.16796875 113.20703125 179.16796875 113.20703125 181.16796875 C118.81703125 181.16796875 124.42703125 181.16796875 130.20703125 181.16796875 C130.20703125 181.82796875 130.20703125 182.48796875 130.20703125 183.16796875 C130.86703125 183.16796875 131.52703125 183.16796875 132.20703125 183.16796875 C134.30053814 186.56991745 134.38645288 189.22069287 134.20703125 193.16796875 C133.54703125 193.16796875 132.88703125 193.16796875 132.20703125 193.16796875 C131.87703125 194.15796875 131.54703125 195.14796875 131.20703125 196.16796875 C129.14453125 197.35546875 129.14453125 197.35546875 127.20703125 198.16796875 C127.91988281 199.12316406 128.63273437 200.07835937 129.3671875 201.0625 C134.40988389 207.85634082 139.31744909 214.65684786 143.76953125 221.859375 C145.0055095 223.8443292 146.29889915 225.75698428 147.64453125 227.66796875 C149.20703125 230.16796875 149.20703125 230.16796875 149.20703125 233.16796875 C149.86703125 233.16796875 150.52703125 233.16796875 151.20703125 233.16796875 C151.69171875 234.01617187 152.17640625 234.864375 152.67578125 235.73828125 C152.99522705 236.29700928 153.31467285 236.8557373 153.64379883 237.43139648 C154.36603731 238.69593574 155.08719099 239.96109507 155.80737305 241.22680664 C157.5588879 244.30189007 159.32383303 247.36437579 161.1328125 250.40625 C167.55777907 261.30075854 172.88122453 272.70599335 178.20703125 284.16796875 C178.64289551 285.09665771 179.07875977 286.02534668 179.52783203 286.98217773 C182.24749926 292.84739132 184.62255465 298.7370583 186.70703125 304.85546875 C187.00327393 305.7155957 187.2995166 306.57572266 187.60473633 307.46191406 C190.29294493 315.31941918 192.87383087 323.19756047 195.20703125 331.16796875 C195.55507813 332.35519531 195.903125 333.54242188 196.26171875 334.765625 C205.17649528 367.62590595 208.88315896 406.19882453 191.35546875 436.9296875 C185.39422308 445.91491052 178.34072741 454.3178741 169.20703125 460.16796875 C168.27117187 460.86019531 168.27117187 460.86019531 167.31640625 461.56640625 C145.27017551 477.46998491 117.09009387 482.65243545 90.76953125 486.35546875 C89.67753418 486.51023682 88.58553711 486.66500488 87.46044922 486.82446289 C83.71424845 487.32289027 79.96376016 487.75872207 76.20703125 488.16796875 C75.42511414 488.25623932 74.64319702 488.34450989 73.83758545 488.43545532 C55.66227788 490.42236639 37.51546521 490.5108595 19.25634766 490.48364258 C15.90432257 490.47902647 12.55266169 490.48589352 9.20068359 490.50415039 C-30.90119688 490.7203828 -76.60876481 490.75470689 -113.79296875 474.16796875 C-115.39634814 473.56171585 -117.00054918 472.95763253 -118.60546875 472.35546875 C-140.81710126 463.4081497 -157.90287921 449.02646252 -167.79296875 427.16796875 C-183.70046471 388.79682263 -172.57296432 339.80198299 -157.60546875 302.91796875 C-157.12464844 301.76683594 -156.64382812 300.61570312 -156.1484375 299.4296875 C-154.19747293 294.7350033 -152.48672846 289.96031239 -150.79296875 285.16796875 C-150.13296875 285.16796875 -149.47296875 285.16796875 -148.79296875 285.16796875 C-148.52484375 283.97171875 -148.25671875 282.77546875 -147.98046875 281.54296875 C-147.05209869 277.78941499 -145.66248032 274.56708069 -143.79296875 271.16796875 C-143.13296875 271.16796875 -142.47296875 271.16796875 -141.79296875 271.16796875 C-141.50421875 269.88921875 -141.21546875 268.61046875 -140.91796875 267.29296875 C-137.52948205 255.91154452 -130.2570343 245.43032684 -124.109375 235.359375 C-121.90256637 231.68572622 -119.84613305 227.92907504 -117.79296875 224.16796875 C-117.13296875 224.16796875 -116.47296875 224.16796875 -115.79296875 224.16796875 C-115.53128906 223.44222656 -115.26960938 222.71648437 -115 221.96875 C-113.76538739 219.10396929 -112.31430218 216.8724153 -110.48046875 214.35546875 C-107.72484378 210.52629822 -105.19945369 206.64810998 -102.8359375 202.56640625 C-102.31966797 201.87417969 -102.31966797 201.87417969 -101.79296875 201.16796875 C-101.13296875 201.16796875 -100.47296875 201.16796875 -99.79296875 201.16796875 C-99.56222656 200.47445312 -99.33148438 199.7809375 -99.09375 199.06640625 C-97.52360168 195.56775745 -95.358683 192.7644308 -92.98046875 189.79296875 C-92.07704827 188.64668111 -91.17469382 187.49955246 -90.2734375 186.3515625 C-89.84337402 185.80483887 -89.41331055 185.25811523 -88.97021484 184.69482422 C-87.50605384 182.79584809 -86.14244916 180.83713818 -84.79296875 178.85546875 C-84.13296875 177.96859375 -83.47296875 177.08171875 -82.79296875 176.16796875 C-82.13296875 176.16796875 -81.47296875 176.16796875 -80.79296875 176.16796875 C-80.54675781 175.61367187 -80.30054688 175.059375 -80.046875 174.48828125 C-75.83334272 166.6912776 -68.86828018 160.0424162 -62.9296875 153.5234375 C-60.33714652 150.66548099 -57.80516917 147.75959436 -55.30078125 144.82421875 C-53.79296875 143.16796875 -53.79296875 143.16796875 -51.35546875 141.29296875 C-48.71362832 137.70006576 -49.497165 133.4735566 -49.79296875 129.16796875 C-48.47296875 128.50796875 -47.15296875 127.84796875 -45.79296875 127.16796875 C-45.79296875 126.50796875 -45.79296875 125.84796875 -45.79296875 125.16796875 C-44.80296875 124.83796875 -43.81296875 124.50796875 -42.79296875 124.16796875 C-44.83300702 121.64581383 -46.8753033 119.12549623 -48.91796875 116.60546875 C-49.48773438 115.90099609 -50.0575 115.19652344 -50.64453125 114.47070312 C-53.92006996 110.43211279 -57.24501783 106.46511181 -60.72216797 102.59790039 C-61.79296875 101.16796875 -61.79296875 101.16796875 -61.79296875 99.16796875 C-63.27796875 98.67296875 -63.27796875 98.67296875 -64.79296875 98.16796875 C-66.30078125 96.671875 -66.30078125 96.671875 -67.91796875 94.73046875 C-68.53027344 94.01117188 -69.14257812 93.291875 -69.7734375 92.55078125 C-70.43988281 91.76445312 -71.10632813 90.978125 -71.79296875 90.16796875 C-76.47376387 84.77286917 -81.15733982 79.62502545 -86.625 75.01953125 C-89.26761763 72.76259295 -91.80433187 70.40268335 -94.35546875 68.04296875 C-98.33198266 64.40983069 -102.31418839 61.15382232 -106.79296875 58.16796875 C-106.3507073 53.34645173 -104.38428958 51.24703509 -100.98046875 47.91796875 C-100.10777344 47.0465625 -99.23507813 46.17515625 -98.3359375 45.27734375 C-95.98402197 43.32644607 -94.76756275 42.5285256 -91.79296875 42.16796875 C-91.79296875 41.50796875 -91.79296875 40.84796875 -91.79296875 40.16796875 C-74.64403258 31.21052194 -74.64403258 31.21052194 -65.79296875 29.16796875 C-66.15390625 28.61367187 -66.51484375 28.059375 -66.88671875 27.48828125 C-67.5828125 26.40160156 -67.5828125 26.40160156 -68.29296875 25.29296875 C-68.75703125 24.57367188 -69.22109375 23.854375 -69.69921875 23.11328125 C-70.79296875 21.16796875 -70.79296875 21.16796875 -70.79296875 19.16796875 C-71.45296875 19.16796875 -72.11296875 19.16796875 -72.79296875 19.16796875 C-72.79296875 18.17796875 -72.79296875 17.18796875 -72.79296875 16.16796875 C-59.28888703 10.7751767 -46.08281689 6.85184886 -31.79296875 4.16796875 C-30.45777638 3.89857924 -29.12313881 3.6264257 -27.7890625 3.3515625 C-27.13019043 3.2162915 -26.47131836 3.08102051 -25.79248047 2.94165039 C-23.97099218 2.56674613 -22.14955679 2.19158489 -20.328125 1.81640625 C-13.50260274 0.564432 -6.92274423 0.010998 0 0 Z " fill="#58C393" transform="translate(291.79296875,60.83203125)"/>
<path d="M0 0 C1.2299469 -0.00642014 1.2299469 -0.00642014 2.48474121 -0.01296997 C5.12139423 -0.02290961 7.75786315 -0.0230328 10.39453125 -0.01953125 C11.29475006 -0.01859467 12.19496887 -0.01765808 13.12246704 -0.01669312 C43.89317656 0.0529262 71.40128895 5.24375716 100.20703125 16.16796875 C99.54918162 19.4647784 98.31282552 22.00914797 96.64453125 24.91796875 C96.18949219 25.7171875 95.73445312 26.51640625 95.265625 27.33984375 C94.91628906 27.943125 94.56695312 28.54640625 94.20703125 29.16796875 C94.73167969 29.28011719 95.25632812 29.39226562 95.796875 29.5078125 C111.07042539 33.39608739 125.95907853 42.2831807 135.20703125 55.16796875 C135.20703125 56.15796875 135.20703125 57.14796875 135.20703125 58.16796875 C133.30859375 59.9921875 133.30859375 59.9921875 130.83203125 61.85546875 C130.01992188 62.47808594 129.2078125 63.10070312 128.37109375 63.7421875 C126.20703125 65.16796875 126.20703125 65.16796875 124.20703125 65.16796875 C124.20703125 65.82796875 124.20703125 66.48796875 124.20703125 67.16796875 C122.59765625 68.82421875 122.59765625 68.82421875 120.45703125 70.66796875 C119.41289063 71.580625 119.41289063 71.580625 118.34765625 72.51171875 C116.20703125 74.16796875 116.20703125 74.16796875 114.01953125 75.25390625 C111.66499591 76.44132278 111.1659249 77.77073461 110.20703125 80.16796875 C109.54703125 80.16796875 108.88703125 80.16796875 108.20703125 80.16796875 C108.20703125 80.82796875 108.20703125 81.48796875 108.20703125 82.16796875 C106.58234133 83.89747737 104.92122599 85.52934176 103.20703125 87.16796875 C97.62005783 92.64006982 92.26376969 98.20283418 87.20703125 104.16796875 C86.29428812 105.23959806 85.38152621 106.31121137 84.46875 107.3828125 C81.70417291 110.63579515 78.94538606 113.89284607 76.20703125 117.16796875 C75.45808594 118.06128906 74.70914063 118.95460938 73.9375 119.875 C72.0409465 122.134449 72.0409465 122.134449 71.20703125 125.16796875 C72.38265625 125.63203125 72.38265625 125.63203125 73.58203125 126.10546875 C76.20703125 127.16796875 76.20703125 127.16796875 78.20703125 128.16796875 C78.05621094 128.79960937 77.90539062 129.43125 77.75 130.08203125 C77.21228931 134.18281391 77.10273643 137.45522127 79.41845703 141.046875 C85.96615953 149.61077917 85.96615953 149.61077917 95.20703125 154.16796875 C104.08410598 154.69158221 113.4746834 154.55789021 121.79296875 151.08984375 C125.26757763 149.76297046 127.65024314 150.2458385 131.20703125 151.16796875 C133.79515285 153.42213917 134.14945768 154.77317854 134.64453125 158.16796875 C134.09443339 161.94006836 133.11173158 162.76424492 130.20703125 165.16796875 C127.26171875 166.3984375 127.26171875 166.3984375 124.08203125 167.35546875 C120.0566398 168.54300735 120.0566398 168.54300735 116.20703125 170.16796875 C114.50339303 170.39418956 112.79374424 170.57685348 111.08203125 170.73046875 C110.17195313 170.81425781 109.261875 170.89804688 108.32421875 170.984375 C107.62554687 171.04496094 106.926875 171.10554687 106.20703125 171.16796875 C106.965 171.99941406 106.965 171.99941406 107.73828125 172.84765625 C108.38796875 173.57210937 109.03765625 174.2965625 109.70703125 175.04296875 C110.35671875 175.76226562 111.00640625 176.4815625 111.67578125 177.22265625 C113.20703125 179.16796875 113.20703125 179.16796875 113.20703125 181.16796875 C118.81703125 181.16796875 124.42703125 181.16796875 130.20703125 181.16796875 C130.20703125 181.82796875 130.20703125 182.48796875 130.20703125 183.16796875 C130.86703125 183.16796875 131.52703125 183.16796875 132.20703125 183.16796875 C134.30053814 186.56991745 134.38645288 189.22069287 134.20703125 193.16796875 C133.54703125 193.16796875 132.88703125 193.16796875 132.20703125 193.16796875 C131.87703125 194.15796875 131.54703125 195.14796875 131.20703125 196.16796875 C129.14453125 197.35546875 129.14453125 197.35546875 127.20703125 198.16796875 C127.91988281 199.12316406 128.63273437 200.07835937 129.3671875 201.0625 C134.40988389 207.85634082 139.31744909 214.65684786 143.76953125 221.859375 C145.0055095 223.8443292 146.29889915 225.75698428 147.64453125 227.66796875 C149.20703125 230.16796875 149.20703125 230.16796875 149.20703125 233.16796875 C149.86703125 233.16796875 150.52703125 233.16796875 151.20703125 233.16796875 C151.69171875 234.01617187 152.17640625 234.864375 152.67578125 235.73828125 C152.99522705 236.29700928 153.31467285 236.8557373 153.64379883 237.43139648 C154.36603731 238.69593574 155.08719099 239.96109507 155.80737305 241.22680664 C157.5588879 244.30189007 159.32383303 247.36437579 161.1328125 250.40625 C167.55777907 261.30075854 172.88122453 272.70599335 178.20703125 284.16796875 C178.64289551 285.09665771 179.07875977 286.02534668 179.52783203 286.98217773 C182.24749926 292.84739132 184.62255465 298.7370583 186.70703125 304.85546875 C187.00327393 305.7155957 187.2995166 306.57572266 187.60473633 307.46191406 C190.29294493 315.31941918 192.87383087 323.19756047 195.20703125 331.16796875 C195.55507813 332.35519531 195.903125 333.54242188 196.26171875 334.765625 C205.17649528 367.62590595 208.88315896 406.19882453 191.35546875 436.9296875 C185.39422308 445.91491052 178.34072741 454.3178741 169.20703125 460.16796875 C168.27117187 460.86019531 168.27117187 460.86019531 167.31640625 461.56640625 C145.27017551 477.46998491 117.09009387 482.65243545 90.76953125 486.35546875 C89.67753418 486.51023682 88.58553711 486.66500488 87.46044922 486.82446289 C83.71424845 487.32289027 79.96376016 487.75872207 76.20703125 488.16796875 C75.42511414 488.25623932 74.64319702 488.34450989 73.83758545 488.43545532 C55.66227788 490.42236639 37.51546521 490.5108595 19.25634766 490.48364258 C15.90432257 490.47902647 12.55266169 490.48589352 9.20068359 490.50415039 C-30.90119688 490.7203828 -76.60876481 490.75470689 -113.79296875 474.16796875 C-115.39634814 473.56171585 -117.00054918 472.95763253 -118.60546875 472.35546875 C-132.00016853 466.95979815 -144.06782513 459.50341384 -153.91796875 448.91796875 C-154.39186035 448.41048096 -154.86575195 447.90299316 -155.35400391 447.38012695 C-157.69100595 444.76729478 -159.37128884 442.71007999 -159.79296875 439.16796875 C-158.33277439 439.57806589 -156.87494103 439.99656754 -155.41796875 440.41796875 C-154.60585937 440.65 -153.79375 440.88203125 -152.95703125 441.12109375 C-150.26322026 442.01237936 -147.69491685 443.01347595 -145.07421875 444.09375 C-129.22589453 450.4830188 -112.3915391 452.87779395 -95.54296875 454.98046875 C-94.29842926 455.13804153 -94.29842926 455.13804153 -93.02874756 455.29879761 C-70.98708075 458.04999012 -49.00890764 458.35625682 -26.82446289 458.35327148 C-23.86118413 458.35319062 -20.89806128 458.36008675 -17.93481445 458.3737793 C11.74842858 458.50863333 42.2276242 458.33018043 71.2734375 451.58740234 C74.12937617 450.96789444 76.96156089 450.78216335 79.87109375 450.609375 C82.51566971 450.10964744 84.74491159 449.07432314 87.18994141 447.97729492 C90.19707489 446.77072902 93.29313989 446.03106501 96.42773438 445.22753906 C106.31858402 442.67658777 114.88869057 439.19858242 123.73828125 434.12109375 C126.54046798 432.54328591 129.19221719 431.25793999 132.20703125 430.16796875 C132.20703125 429.50796875 132.20703125 428.84796875 132.20703125 428.16796875 C133.85774521 427.14184926 135.52673131 426.14488732 137.20703125 425.16796875 C137.76390625 424.61109375 138.32078125 424.05421875 138.89453125 423.48046875 C139.32765625 423.04734375 139.76078125 422.61421875 140.20703125 422.16796875 C140.86703125 422.16796875 141.52703125 422.16796875 142.20703125 422.16796875 C142.42488281 421.636875 142.64273437 421.10578125 142.8671875 420.55859375 C144.69408886 417.29893301 147.17039674 414.69041457 149.64453125 411.91796875 C154.6277167 406.20039748 154.6277167 406.20039748 157.6015625 399.3046875 C158.70499912 395.41062408 160.45535686 391.72724463 162.0234375 388 C165.55862243 377.80899458 165.59643146 366.7023945 165.58203125 356.04296875 C165.58148743 355.35431732 165.5809436 354.66566589 165.5803833 353.95614624 C165.50843273 333.91273226 162.52712926 314.71314678 156.4765625 295.59375 C155.19924339 291.45581545 154.61564254 287.47561792 154.20703125 283.16796875 C153.54703125 283.16796875 152.88703125 283.16796875 152.20703125 283.16796875 C150.09242723 278.65040561 148.71159994 274.48514394 147.83203125 269.57421875 C146.2666262 263.54740932 143.16989754 257.85019043 140.51953125 252.23046875 C140.1735791 251.49683105 139.82762695 250.76319336 139.47119141 250.00732422 C132.61513096 235.53617269 125.66641389 221.08835596 116.72265625 207.7734375 C115.09664701 204.97821027 114.12792559 202.26018749 113.20703125 199.16796875 C112.54703125 199.16796875 111.88703125 199.16796875 111.20703125 199.16796875 C111.20703125 198.50796875 111.20703125 197.84796875 111.20703125 197.16796875 C110.32402344 196.9978125 109.44101562 196.82765625 108.53125 196.65234375 C101.64459801 195.26169867 95.14231293 193.63222557 88.609375 191.03515625 C86.1942447 190.09428802 86.1942447 190.09428802 83.51171875 189.640625 C80.81661577 189.08790049 79.85546308 188.33695801 78.20703125 186.16796875 C78.20703125 185.50796875 78.20703125 184.84796875 78.20703125 184.16796875 C77.09328125 183.82765625 77.09328125 183.82765625 75.95703125 183.48046875 C72.68471761 181.91868269 71.34682186 180.04561819 69.20703125 177.16796875 C68.54703125 176.83796875 67.88703125 176.50796875 67.20703125 176.16796875 C67.20703125 175.50796875 67.20703125 174.84796875 67.20703125 174.16796875 C66.21703125 173.83796875 65.22703125 173.50796875 64.20703125 173.16796875 C64.20703125 172.50796875 64.20703125 171.84796875 64.20703125 171.16796875 C63.54703125 171.16796875 62.88703125 171.16796875 62.20703125 171.16796875 C62.20703125 170.17796875 62.20703125 169.18796875 62.20703125 168.16796875 C61.54703125 168.16796875 60.88703125 168.16796875 60.20703125 168.16796875 C59.36854321 166.71259307 58.53639191 165.25356502 57.70703125 163.79296875 C57.24296875 162.98085937 56.77890625 162.16875 56.30078125 161.33203125 C55.20703125 159.16796875 55.20703125 159.16796875 55.20703125 157.16796875 C54.54703125 157.16796875 53.88703125 157.16796875 53.20703125 157.16796875 C52.54703125 153.86796875 51.88703125 150.56796875 51.20703125 147.16796875 C49.9243335 147.38018066 49.9243335 147.38018066 48.61572266 147.59667969 C37.90143211 149.21355578 27.40481949 149.48677409 16.58203125 149.41796875 C15.25992142 149.41281754 15.25992142 149.41281754 13.91110229 149.40756226 C-8.18595343 149.30655946 -28.33171015 148.23542572 -48.79296875 139.16796875 C-49.12296875 135.86796875 -49.45296875 132.56796875 -49.79296875 129.16796875 C-48.47296875 128.50796875 -47.15296875 127.84796875 -45.79296875 127.16796875 C-45.79296875 126.50796875 -45.79296875 125.84796875 -45.79296875 125.16796875 C-44.80296875 124.83796875 -43.81296875 124.50796875 -42.79296875 124.16796875 C-44.83300702 121.64581383 -46.8753033 119.12549623 -48.91796875 116.60546875 C-49.48773438 115.90099609 -50.0575 115.19652344 -50.64453125 114.47070312 C-53.92006996 110.43211279 -57.24501783 106.46511181 -60.72216797 102.59790039 C-61.79296875 101.16796875 -61.79296875 101.16796875 -61.79296875 99.16796875 C-63.27796875 98.67296875 -63.27796875 98.67296875 -64.79296875 98.16796875 C-66.30078125 96.671875 -66.30078125 96.671875 -67.91796875 94.73046875 C-68.53027344 94.01117188 -69.14257812 93.291875 -69.7734375 92.55078125 C-70.43988281 91.76445312 -71.10632813 90.978125 -71.79296875 90.16796875 C-76.47376387 84.77286917 -81.15733982 79.62502545 -86.625 75.01953125 C-89.26761763 72.76259295 -91.80433187 70.40268335 -94.35546875 68.04296875 C-98.33198266 64.40983069 -102.31418839 61.15382232 -106.79296875 58.16796875 C-106.3507073 53.34645173 -104.38428958 51.24703509 -100.98046875 47.91796875 C-100.10777344 47.0465625 -99.23507813 46.17515625 -98.3359375 45.27734375 C-95.98402197 43.32644607 -94.76756275 42.5285256 -91.79296875 42.16796875 C-91.79296875 41.50796875 -91.79296875 40.84796875 -91.79296875 40.16796875 C-74.64403258 31.21052194 -74.64403258 31.21052194 -65.79296875 29.16796875 C-66.15390625 28.61367187 -66.51484375 28.059375 -66.88671875 27.48828125 C-67.5828125 26.40160156 -67.5828125 26.40160156 -68.29296875 25.29296875 C-68.75703125 24.57367188 -69.22109375 23.854375 -69.69921875 23.11328125 C-70.79296875 21.16796875 -70.79296875 21.16796875 -70.79296875 19.16796875 C-71.45296875 19.16796875 -72.11296875 19.16796875 -72.79296875 19.16796875 C-72.79296875 18.17796875 -72.79296875 17.18796875 -72.79296875 16.16796875 C-59.28888703 10.7751767 -46.08281689 6.85184886 -31.79296875 4.16796875 C-30.45777638 3.89857924 -29.12313881 3.6264257 -27.7890625 3.3515625 C-27.13019043 3.2162915 -26.47131836 3.08102051 -25.79248047 2.94165039 C-23.97099218 2.56674613 -22.14955679 2.19158489 -20.328125 1.81640625 C-13.50260274 0.564432 -6.92274423 0.010998 0 0 Z " fill="#58C393" transform="translate(291.79296875,60.83203125)"/>
<path d="M0 0 C5.031739 -0.78495128 10.04816151 -1.43963542 15 0 C18.86180859 3.19222081 21.28990659 6.81760777 23.8515625 11.08740234 C25.00987222 13.0164411 26.22680138 14.89342726 27.46875 16.76953125 C29.00519585 19.10083828 30.50674412 21.44339516 31.9921875 23.80859375 C33.35949296 25.98191779 34.78450275 28.11974874 36.2578125 30.22265625 C38 33 38 33 38 36 C38.66 36 39.32 36 40 36 C40.4846875 36.84820312 40.969375 37.69640625 41.46875 38.5703125 C41.9479187 39.40840454 41.9479187 39.40840454 42.43676758 40.26342773 C43.15900606 41.52796699 43.88015974 42.79312632 44.6003418 44.05883789 C46.35185665 47.13392132 48.11680178 50.19640704 49.92578125 53.23828125 C56.35074782 64.13278979 61.67419328 75.5380246 67 87 C67.43586426 87.92868896 67.87172852 88.85737793 68.32080078 89.81420898 C71.04046801 95.67942257 73.4155234 101.56908955 75.5 107.6875 C75.79624268 108.54762695 76.09248535 109.40775391 76.39770508 110.29394531 C79.08591368 118.15145043 81.66679962 126.02959172 84 134 C84.34804688 135.18722656 84.69609375 136.37445313 85.0546875 137.59765625 C93.96946403 170.4579372 97.67612771 209.03085578 80.1484375 239.76171875 C74.18719183 248.74694177 67.13369616 257.14990535 58 263 C57.06414062 263.69222656 57.06414062 263.69222656 56.109375 264.3984375 C34.06314426 280.30201616 5.88306262 285.4844667 -20.4375 289.1875 C-21.52949707 289.34226807 -22.62149414 289.49703613 -23.74658203 289.65649414 C-27.4927828 290.15492152 -31.24327109 290.59075332 -35 291 C-35.78191711 291.08827057 -36.56383423 291.17654114 -37.3694458 291.26748657 C-55.54475337 293.25439764 -73.69156604 293.34289075 -91.95068359 293.31567383 C-95.30270868 293.31105772 -98.65436956 293.31792477 -102.00634766 293.33618164 C-142.10822813 293.55241405 -187.81579606 293.58673814 -225 277 C-226.60337939 276.3937471 -228.20758043 275.78966378 -229.8125 275.1875 C-243.20719978 269.7918294 -255.27485638 262.33544509 -265.125 251.75 C-265.5988916 251.24251221 -266.0727832 250.73502441 -266.56103516 250.2121582 C-268.8980372 247.59932603 -270.57832009 245.54211124 -271 242 C-269.53980564 242.41009714 -268.08197228 242.82859879 -266.625 243.25 C-265.40683594 243.59804688 -265.40683594 243.59804688 -264.1640625 243.953125 C-261.47025151 244.84441061 -258.9019481 245.8455072 -256.28125 246.92578125 C-240.43292578 253.31505005 -223.59857035 255.7098252 -206.75 257.8125 C-205.50546051 257.97007278 -205.50546051 257.97007278 -204.23577881 258.13082886 C-182.194112 260.88202137 -160.21593889 261.18828807 -138.03149414 261.18530273 C-135.06821538 261.18522187 -132.10509253 261.192118 -129.1418457 261.20581055 C-99.45860267 261.34066458 -68.97940705 261.16221168 -39.93359375 254.41943359 C-37.07765508 253.79992569 -34.24547036 253.6141946 -31.3359375 253.44140625 C-28.69136154 252.94167869 -26.46211966 251.90635439 -24.01708984 250.80932617 C-21.00995636 249.60276027 -17.91389136 248.86309626 -14.77929688 248.05957031 C-4.88844723 245.50861902 3.68165932 242.03061367 12.53125 236.953125 C15.33343673 235.37531716 17.98518594 234.08997124 21 233 C21 232.34 21 231.68 21 231 C22.65071396 229.97388051 24.31970006 228.97691857 26 228 C26.8353125 227.1646875 26.8353125 227.1646875 27.6875 226.3125 C28.120625 225.879375 28.55375 225.44625 29 225 C29.66 225 30.32 225 31 225 C31.21785156 224.46890625 31.43570312 223.9378125 31.66015625 223.390625 C33.48705761 220.13096426 35.96336549 217.52244582 38.4375 214.75 C43.42068545 209.03242873 43.42068545 209.03242873 46.39453125 202.13671875 C47.49796787 198.24265533 49.24832561 194.55927588 50.81640625 190.83203125 C54.35159118 180.64102583 54.38940021 169.53442575 54.375 158.875 C54.37445618 158.18634857 54.37391235 157.49769714 54.37335205 156.78817749 C54.30140148 136.74476351 51.32009801 117.54517803 45.26953125 98.42578125 C43.99221214 94.2878467 43.40861129 90.30764917 43 86 C42.34 86 41.68 86 41 86 C38.88539598 81.48243686 37.50456869 77.31717519 36.625 72.40625 C35.05959495 66.37944057 31.96286629 60.68222168 29.3125 55.0625 C28.79357178 53.96204346 28.79357178 53.96204346 28.26416016 52.83935547 C21.40809971 38.36820394 14.45938264 23.92038721 5.515625 10.60546875 C3.88961576 7.81024152 2.92089434 5.09221874 2 2 C1.34 2 0.68 2 0 2 C0 1.34 0 0.68 0 0 Z " fill="#02896B" transform="translate(403,258)"/>
<path d="M0 0 C7.26 0 14.52 0 22 0 C22 7.26 22 14.52 22 22 C23.98 22 25.96 22 28 22 C40.19764583 25.49566679 48.41007185 32.99950024 54.6875 43.94140625 C55.85469575 46.27248186 56.96694872 48.60685106 58 51 C57.41734375 51.27972656 56.8346875 51.55945313 56.234375 51.84765625 C50.12869644 54.83329467 44.33516385 58.14705564 38.56640625 61.7421875 C36 63 36 63 33 62 C31.6273318 60.02678947 30.29572383 58.02456848 29 56 C28.4225 55.4225 27.845 54.845 27.25 54.25 C26.8375 53.8375 26.425 53.425 26 53 C26 52.34 26 51.68 26 51 C25.05125 50.690625 24.1025 50.38125 23.125 50.0625 C20 49 20 49 18 48 C10.16641279 47.48885546 2.39605333 47.05675378 -3.8125 52.4375 C-6.98156045 56.14982796 -8.27885301 58.15269359 -8.25 63 C-8.25515625 63.86625 -8.2603125 64.7325 -8.265625 65.625 C-8.15414552 68.265795 -8.15414552 68.265795 -6 71 C-6 71.99 -6 72.98 -6 74 C-5.071875 74.4640625 -5.071875 74.4640625 -4.125 74.9375 C-2.75 75.625 -1.375 76.3125 0 77 C0 77.66 0 78.32 0 79 C0.80179687 79.23589844 1.60359375 79.47179687 2.4296875 79.71484375 C6.86626554 81.31181768 10.94066078 83.40207037 15.125 85.5625 C16.70899071 86.38008487 18.29486771 87.1940279 19.8828125 88.00390625 C20.57777832 88.36299072 21.27274414 88.7220752 21.98876953 89.09204102 C23.97992576 89.99093759 25.86849287 90.5410302 28 91 C28 91.66 28 92.32 28 93 C29.299375 93.4021875 29.299375 93.4021875 30.625 93.8125 C33.91791964 94.97111987 36.91127875 96.38209839 40 98 C40 98.66 40 99.32 40 100 C40.53625 100.226875 41.0725 100.45375 41.625 100.6875 C49.82407733 105.21856905 54.72983819 112.3574295 58 121 C58.28101563 121.62519531 58.56203125 122.25039063 58.8515625 122.89453125 C63.22983943 133.75177353 61.89620808 147.19411039 58 158 C56.48225999 161.42394919 54.82901314 164.73235596 53 168 C52.34 168 51.68 168 51 168 C50.814375 168.680625 50.62875 169.36125 50.4375 170.0625 C46.59708049 177.91031379 37.78722126 184.68396967 29.75 187.875 C26 189 26 189 22 189 C22 196.59 22 204.18 22 212 C14.74 212 7.48 212 0 212 C0 204.74 0 197.48 0 190 C-3.3 189.67 -6.6 189.34 -10 189 C-13.6015625 187.80859375 -13.6015625 187.80859375 -16.625 186.4375 C-17.64851563 185.98246094 -18.67203125 185.52742187 -19.7265625 185.05859375 C-20.85191406 184.53458984 -20.85191406 184.53458984 -22 184 C-22 183.34 -22 182.68 -22 182 C-23.051875 181.6596875 -23.051875 181.6596875 -24.125 181.3125 C-28.67145988 179.23694223 -32.15390996 176.73063871 -34.375 172.1875 C-34.58125 171.465625 -34.7875 170.74375 -35 170 C-35.66 170 -36.32 170 -37 170 C-38.29543103 166.95992315 -39.58565977 163.91766448 -40.875 160.875 C-41.23980469 160.0190625 -41.60460937 159.163125 -41.98046875 158.28125 C-47.33138938 145.63361942 -47.33138938 145.63361942 -47 140 C-43.79363027 139.32364936 -40.58463311 138.66067552 -37.375 138 C-36.47136719 137.80921875 -35.56773437 137.6184375 -34.63671875 137.421875 C-30.01796444 136.47789602 -25.74352828 135.74785232 -21 136 C-20.41992188 137.41152344 -20.41992188 137.41152344 -19.828125 138.8515625 C-19.30241421 140.10951333 -18.7763538 141.36731809 -18.25 142.625 C-17.99734375 143.24246094 -17.7446875 143.85992187 -17.484375 144.49609375 C-14.7589989 150.96886198 -11.59101981 155.65142903 -6 160 C-6 160.66 -6 161.32 -6 162 C5.85793169 163.58105756 15.40815662 164.59398986 25.375 157.25 C26.179375 156.63125 26.179375 156.63125 27 156 C27.66 156 28.32 156 29 156 C29.309375 155.05125 29.61875 154.1025 29.9375 153.125 C31 150 31 150 32 148 C32.15144564 145.40212471 32.23136981 142.84891179 32.25 140.25 C32.270625 139.54617188 32.29125 138.84234375 32.3125 138.1171875 C32.34791884 133.35335415 31.63847695 130.11799674 29 126 C27.515 125.01 27.515 125.01 26 124 C26 123.34 26 122.68 26 122 C25.2575 121.731875 24.515 121.46375 23.75 121.1875 C21 120 21 120 19.125 118.5625 C16.85998985 116.89705136 14.54709355 115.93236614 11.96630859 114.84985352 C8.66468274 113.42286573 5.46176996 111.80454376 2.25 110.1875 C1.20936401 109.66518799 1.20936401 109.66518799 0.14770508 109.13232422 C-14.03769884 101.97486744 -14.03769884 101.97486744 -20 98 C-20 97.34 -20 96.68 -20 96 C-20.8971875 95.61714844 -20.8971875 95.61714844 -21.8125 95.2265625 C-28.79805493 91.30966206 -32.44936059 81.9541305 -35.25 74.8125 C-37.69323865 62.39270354 -36.01173986 49.63850186 -29 39 C-28.34 39 -27.68 39 -27 39 C-26.731875 38.360625 -26.46375 37.72125 -26.1875 37.0625 C-25 35 -25 35 -22 34 C-21.5978125 33.1028125 -21.5978125 33.1028125 -21.1875 32.1875 C-18.27444595 26.8213478 -10.6540391 23.84862496 -5 22 C-3.35 22 -1.7 22 0 22 C0 14.74 0 7.48 0 0 Z " fill="#E9EBEA" transform="translate(294,254)"/>
<path d="M0 0 C0.495 0.99 0.495 0.99 1 2 C2.64551962 2.71727778 4.31422289 3.38325228 6 4 C6.99 4.495 6.99 4.495 8 5 C7.77376953 5.94746094 7.77376953 5.94746094 7.54296875 6.9140625 C7.00525806 11.01484516 6.89570518 14.28725252 9.21142578 17.87890625 C15.75912828 26.44281042 15.75912828 26.44281042 25 31 C33.87707473 31.52361346 43.26765215 31.38992146 51.5859375 27.921875 C55.06054638 26.59500171 57.44321189 27.07786975 61 28 C63.5881216 30.25417042 63.94242643 31.60520979 64.4375 35 C63.88740214 38.77209961 62.90470033 39.59627617 60 42 C57.0546875 43.23046875 57.0546875 43.23046875 53.875 44.1875 C49.84960855 45.3750386 49.84960855 45.3750386 46 47 C44.29636178 47.22622081 42.58671299 47.40888473 40.875 47.5625 C39.96492187 47.64628906 39.05484375 47.73007813 38.1171875 47.81640625 C37.41851562 47.87699219 36.71984375 47.93757813 36 48 C36.5053125 48.55429688 37.010625 49.10859375 37.53125 49.6796875 C38.1809375 50.40414062 38.830625 51.12859375 39.5 51.875 C40.1496875 52.59429687 40.799375 53.31359375 41.46875 54.0546875 C43 56 43 56 43 58 C48.61 58 54.22 58 60 58 C60 58.66 60 59.32 60 60 C60.66 60 61.32 60 62 60 C64.09350689 63.4019487 64.17942163 66.05272412 64 70 C63.34 70 62.68 70 62 70 C61.67 70.99 61.34 71.98 61 73 C52.53035417 77.23482292 35.49354633 73.52321057 26.5625 71.046875 C24.55271133 70.37359579 22.55151753 69.67377548 20.5625 68.94140625 C18.36043242 68.13241496 16.21078011 67.50108403 13.9375 66.9375 C11.07298357 66.02329263 9.72470072 65.43487161 8 63 C8 62.34 8 61.68 8 61 C7.2575 60.773125 6.515 60.54625 5.75 60.3125 C2.47768636 58.75071394 1.13979061 56.87764944 -1 54 C-1.66 53.67 -2.32 53.34 -3 53 C-3 52.34 -3 51.68 -3 51 C-4.485 50.505 -4.485 50.505 -6 50 C-6 49.34 -6 48.68 -6 48 C-6.66 48 -7.32 48 -8 48 C-8 47.01 -8 46.02 -8 45 C-8.66 45 -9.32 45 -10 45 C-10.83848804 43.54462432 -11.67063934 42.08559627 -12.5 40.625 C-13.19609375 39.40683594 -13.19609375 39.40683594 -13.90625 38.1640625 C-15 36 -15 36 -15 34 C-15.66 34 -16.32 34 -17 34 C-17.99 29.05 -17.99 29.05 -19 24 C-20.28269775 24.21221191 -20.28269775 24.21221191 -21.59130859 24.42871094 C-32.30559914 26.04558703 -42.80221176 26.31880534 -53.625 26.25 C-54.50640656 26.24656586 -55.38781311 26.24313171 -56.29592896 26.23959351 C-78.39298468 26.13859071 -98.5387414 25.06745697 -119 16 C-119.33 12.7 -119.66 9.4 -120 6 C-118.68 5.34 -117.36 4.68 -116 4 C-116 3.34 -116 2.68 -116 2 C-111.42064221 2.56237727 -107.25955314 3.45743771 -102.875 4.875 C-72.38435881 13.61394946 -35.9626684 12.8277768 -5.6328125 3.76953125 C-3 3 -3 3 -1 3 C-0.67 2.01 -0.34 1.02 0 0 Z " fill="#F3B60A" transform="translate(362,184)"/>
<path d="M0 0 C3.95024294 4.3423266 6.56944632 9.79224146 9.04296875 15.078125 C10.01342452 17.10376063 10.01342452 17.10376063 11.4453125 19.31640625 C13.20467791 22.35330081 14.4420766 25.40751105 15.6875 28.6875 C16.12449219 29.82574219 16.56148437 30.96398437 17.01171875 32.13671875 C18 35 18 35 18 37 C18.66 37 19.32 37 20 37 C20.66 40.3 21.32 43.6 22 47 C22.66 47 23.32 47 24 47 C24.19335938 47.67546875 24.38671875 48.3509375 24.5859375 49.046875 C24.84632813 49.93890625 25.10671875 50.8309375 25.375 51.75 C25.63023437 52.63171875 25.88546875 53.5134375 26.1484375 54.421875 C26.9229038 56.76658949 27.89019042 58.80312284 29 61 C29.46694364 62.83442143 29.93015573 64.669942 30.3671875 66.51171875 C32.53119842 75.4703042 32.53119842 75.4703042 36.0234375 83.9375 C37.44346037 86.9365883 37.96410948 90.00562837 38.625 93.25 C38.88539063 94.51328125 39.14578125 95.7765625 39.4140625 97.078125 C39.60742188 98.04234375 39.80078125 99.0065625 40 100 C38.2897816 99.74133708 36.58186696 99.46742618 34.875 99.1875 C33.44800781 98.96126953 33.44800781 98.96126953 31.9921875 98.73046875 C24.26403662 96.84383139 20.7307858 92.79259759 16 86.75 C14.81313216 85.26511949 13.62563819 83.78073922 12.4375 82.296875 C11.86773437 81.57693359 11.29796875 80.85699219 10.7109375 80.11523438 C8.57652796 77.47646094 6.33893437 74.9391968 4.06640625 72.41894531 C3 71 3 71 3 69 C2.01 68.67 1.02 68.34 0 68 C-1.5078125 66.50390625 -1.5078125 66.50390625 -3.125 64.5625 C-3.73730469 63.84320313 -4.34960938 63.12390625 -4.98046875 62.3828125 C-5.64691406 61.59648437 -6.31335938 60.81015625 -7 60 C-11.68079512 54.60490042 -16.36437107 49.4570567 -21.83203125 44.8515625 C-24.47464888 42.5946242 -27.01136312 40.2347146 -29.5625 37.875 C-33.53901391 34.24186194 -37.52121964 30.98585357 -42 28 C-41.55773855 23.17848298 -39.59132083 21.07906634 -36.1875 17.75 C-35.31480469 16.87859375 -34.44210938 16.0071875 -33.54296875 15.109375 C-31.19105322 13.15847732 -29.974594 12.36055685 -27 12 C-27 11.34 -27 10.68 -27 10 C-24.43873936 8.705826 -21.87606642 7.41459216 -19.3125 6.125 C-18.59126953 5.76019531 -17.87003906 5.39539063 -17.12695312 5.01953125 C-4.93007918 -1.10675247 -4.93007918 -1.10675247 0 0 Z " fill="#038A6B" transform="translate(227,91)"/>
<path d="M0 0 C6.81868625 1.24657301 12.34386324 3.28818667 18.4375 6.5625 C19.68092163 7.22415161 19.68092163 7.22415161 20.94946289 7.89916992 C29.37813802 12.52828332 36.33280618 18.12678443 42 26 C42 26.99 42 27.98 42 29 C40.1015625 30.82421875 40.1015625 30.82421875 37.625 32.6875 C36.81289063 33.31011719 36.00078125 33.93273437 35.1640625 34.57421875 C33 36 33 36 31 36 C31 36.66 31 37.32 31 38 C29.390625 39.65625 29.390625 39.65625 27.25 41.5 C26.20585937 42.41265625 26.20585937 42.41265625 25.140625 43.34375 C23 45 23 45 20.8125 46.0859375 C18.45796466 47.27335403 17.95889365 48.60276586 17 51 C16.34 51 15.68 51 15 51 C15 51.66 15 52.32 15 53 C13.37531008 54.72950862 11.71419474 56.36137301 10 58 C4.41277381 63.47234864 -0.94082391 69.03667397 -6 75 C-6.87747243 76.02485239 -7.75508762 77.04958256 -8.6328125 78.07421875 C-9.58863098 79.19523636 -10.54435824 80.31633174 -11.5 81.4375 C-12.22014282 82.27607544 -12.22014282 82.27607544 -12.95483398 83.1315918 C-15.6737011 86.32589942 -18.08837449 89.58188861 -20.4375 93.0625 C-24.36860523 98.25308554 -29.79298843 99.74809217 -36 101 C-37.32 101 -38.64 101 -40 101 C-38.79546943 92.08647379 -35.95829125 83.46640677 -33 75 C-32.57847656 73.78828125 -32.15695312 72.5765625 -31.72265625 71.328125 C-30.167697 66.87850863 -28.58583195 62.43868988 -27 58 C-26.71044434 57.18515137 -26.42088867 56.37030273 -26.12255859 55.53076172 C-22.87664827 46.4219592 -19.6369996 37.51197478 -15 29 C-12.34926448 23.92433236 -10.09678753 18.81160612 -8.015625 13.4765625 C-6.53873898 9.87523275 -4.79121989 6.4544955 -3 3 C-2.34 3 -1.68 3 -1 3 C-0.67 2.01 -0.34 1.02 0 0 Z " fill="#02896B" transform="translate(385,90)"/>
<path d="M0 0 C0.71542969 0.20496094 1.43085938 0.40992188 2.16796875 0.62109375 C7.83465128 2.15322395 12.86814087 3.09060316 18.75 3.125 C24.0269114 3.39805318 26.26234628 4.51166863 29.8125 8.4375 C33 12.53195876 33 12.53195876 33 15 C38.61 15 44.22 15 50 15 C50 15.66 50 16.32 50 17 C50.66 17 51.32 17 52 17 C54.09350689 20.4019487 54.17942163 23.05272412 54 27 C53.34 27 52.68 27 52 27 C51.505 28.485 51.505 28.485 51 30 C42.53035417 34.23482292 25.49354633 30.52321057 16.5625 28.046875 C14.55271133 27.37359579 12.55151753 26.67377548 10.5625 25.94140625 C8.36043242 25.13241496 6.21078011 24.50108403 3.9375 23.9375 C1.07298357 23.02329263 -0.27529928 22.43487161 -2 20 C-2 19.34 -2 18.68 -2 18 C-2.66 17.67 -3.32 17.34 -4 17 C-2.35 16.67 -0.7 16.34 1 16 C0.34 16.33 -0.32 16.66 -1 17 C-1 17.66 -1 18.32 -1 19 C0.65 18.67 2.3 18.34 4 18 C4.33 16.02 4.66 14.04 5 12 C5.99 12 6.98 12 8 12 C8 11.34 8 10.68 8 10 C8.66 10 9.32 10 10 10 C10 9.34 10 8.68 10 8 C9.34 8 8.68 8 8 8 C8 7.34 8 6.68 8 6 C7.236875 5.71125 6.47375 5.4225 5.6875 5.125 C3 4 3 4 0 2 C0 1.34 0 0.68 0 0 Z " fill="#ECB60F" transform="translate(372,227)"/>
<path d="M0 0 C2.60478883 -0.0809313 5.20706653 -0.14045434 7.8125 -0.1875 C8.55048828 -0.21263672 9.28847656 -0.23777344 10.04882812 -0.26367188 C15.52488524 -0.33800749 15.52488524 -0.33800749 17.94921875 1.38671875 C20.11979717 4.71924249 20.08595241 7.04618928 20 11 C19.34 11 18.68 11 18 11 C17.67 11.99 17.34 12.98 17 14 C8.6752429 18.16237855 -8.88801648 14.57557197 -17.47265625 11.9296875 C-18.30667969 11.62289062 -19.14070313 11.31609375 -20 11 C-18.50902342 7.2047869 -16.24299151 5.38957269 -13 3 C-13.33 2.34 -13.66 1.68 -14 1 C-10.37 1.33 -6.74 1.66 -3 2 C-3 2.33 -3 2.66 -3 3 C-0.525 3.495 -0.525 3.495 2 4 C2 3.34 2 2.68 2 2 C1.34 2 0.68 2 0 2 C0 1.34 0 0.68 0 0 Z " fill="#F4B60A" transform="translate(406,243)"/>
<path d="M0 0 C0.71542969 0.20496094 1.43085938 0.40992188 2.16796875 0.62109375 C7.83465128 2.15322395 12.86814087 3.09060316 18.75 3.125 C24.0269114 3.39805318 26.26234628 4.51166863 29.8125 8.4375 C33 12.53195876 33 12.53195876 33 15 C26.93587682 14.44871607 21.70190803 13.1048638 16 11 C15.22527344 10.71511719 14.45054687 10.43023437 13.65234375 10.13671875 C11.76457694 9.43421646 9.88174241 8.71848347 8 8 C8 7.34 8 6.68 8 6 C7.236875 5.71125 6.47375 5.4225 5.6875 5.125 C3 4 3 4 0 2 C0 1.34 0 0.68 0 0 Z " fill="#148D63" transform="translate(372,227)"/>
<path d="M0 0 C6.85618326 1.92556636 13.43252132 4.2472483 20 7 C20 7.99 20 8.98 20 10 C20.66 10.33 21.32 10.66 22 11 C21.34 11 20.68 11 20 11 C18.87483915 12.83284443 18.87483915 12.83284443 18 15 C18.33 15.99 18.66 16.98 19 18 C18.34 18.66 17.68 19.32 17 20 C10.63113368 14.57941559 4.53469806 9.10235822 0 2 C0 1.34 0 0.68 0 0 Z " fill="#0A8C6B" transform="translate(132,500)"/>
<path d="M0 0 C3.8183225 0.0615126 7.63667404 0.10799964 11.45524597 0.15083027 C14.4184101 0.1860963 17.38138946 0.23032114 20.34439087 0.27718163 C21.75415846 0.29817007 23.16397532 0.31608913 24.57382202 0.33083534 C26.52785509 0.35235586 28.48172365 0.38751861 30.43554688 0.42333984 C31.54406006 0.43967972 32.65257324 0.45601959 33.79467773 0.47285461 C36.53320312 0.75805664 36.53320312 0.75805664 39.53320312 2.75805664 C29.68363288 2.78131898 19.83406926 2.79904213 9.98447704 2.80986881 C5.4099702 2.81506741 0.83548228 2.82210961 -3.73901367 2.83349609 C-8.16105521 2.8444331 -12.58307865 2.8503562 -17.00513268 2.85293388 C-18.68465141 2.85476877 -20.36416925 2.85835149 -22.04368019 2.8637867 C-30.896747 2.89127404 -39.66191988 2.82533967 -48.46679688 1.75805664 C-48.46679688 1.42805664 -48.46679688 1.09805664 -48.46679688 0.75805664 C-32.31526616 -0.49512529 -16.18193482 -0.26222381 0 0 Z " fill="#0E926F" transform="translate(304.466796875,548.241943359375)"/>
<path d="M0 0 C-1.25 2 -1.25 2 -3 4 C-4.32 4 -5.64 4 -7 4 C-4.05270463 5.15811388 -4.05270463 5.15811388 -1 5 C-1 5.66 -1 6.32 -1 7 C-3.31 7.66 -5.62 8.32 -8 9 C-8.04254356 10.99954746 -8.04080783 13.00041636 -8 15 C-7.67 15.33 -7.34 15.66 -7 16 C-6.67 15.01 -6.34 14.02 -6 13 C-6 14.32 -6 15.64 -6 17 C-6.66 17 -7.32 17 -8 17 C-8 17.66 -8 18.32 -8 19 C-10.65204896 18.63165987 -11.73840056 18.3132309 -13.484375 16.22265625 C-13.90203125 15.50980469 -14.3196875 14.79695313 -14.75 14.0625 C-15.17796875 13.35222656 -15.6059375 12.64195313 -16.046875 11.91015625 C-17 10 -17 10 -17 8 C-17.66 8 -18.32 8 -19 8 C-19 7.01 -19 6.02 -19 5 C-16.9635505 4.15399724 -14.92056513 3.3237175 -12.875 2.5 C-11.73804688 2.0359375 -10.60109375 1.571875 -9.4296875 1.09375 C-6.0528355 0.01684959 -3.51385272 -0.21360807 0 0 Z M-15 6 C-14.67 6.99 -14.34 7.98 -14 9 C-14 8.34 -14 7.68 -14 7 C-12.35 6.67 -10.7 6.34 -9 6 C-12.04913228 4.98888907 -12.04913228 4.98888907 -15 6 Z " fill="#5CC496" transform="translate(238,72)"/>
<path d="M0 0 C1.31742187 0.03738281 2.63484375 0.07476562 3.9921875 0.11328125 C5.94511719 0.21189453 5.94511719 0.21189453 7.9375 0.3125 C9.09507812 0.36792969 10.25265625 0.42335937 11.4453125 0.48046875 C16.18725748 0.78921947 19.71523699 1.09299419 23.9375 3.3125 C26.26245277 3.69999213 28.59601268 4.04232839 30.9375 4.3125 C30.9375 4.6425 30.9375 4.9725 30.9375 5.3125 C16.7475 4.9825 2.5575 4.6525 -12.0625 4.3125 C-6.802023 0.1041184 -6.2290898 -0.18995121 0 0 Z " fill="#EFFAF5" transform="translate(304.0625,56.6875)"/>
<path d="M0 0 C5.23435005 4.27293882 9.67106815 8.81580806 14 14 C11.26980214 15.06528748 10.20701188 15.07998186 7.421875 14.00390625 C6.54015625 13.52824219 5.6584375 13.05257812 4.75 12.5625 C3.41195313 11.85287109 3.41195313 11.85287109 2.046875 11.12890625 C1.37140625 10.75636719 0.6959375 10.38382813 0 10 C0 9.34 0 8.68 0 8 C-0.804375 7.731875 -1.60875 7.46375 -2.4375 7.1875 C-3.283125 6.795625 -4.12875 6.40375 -5 6 C-5.33 5.01 -5.66 4.02 -6 3 C-4.02 2.01 -2.04 1.02 0 0 Z " fill="#269467" transform="translate(368,199)"/>
<path d="M0 0 C0.99 3.96 0.99 3.96 2 8 C1.01 7.01 0.02 6.02 -1 5 C-1.99 5.66 -2.98 6.32 -4 7 C-4 5.35 -4 3.7 -4 2 C-5.09997314 2.16226074 -6.19994629 2.32452148 -7.33325195 2.49169922 C-12.44891719 3.12781723 -17.51888805 3.14379304 -22.66796875 3.1328125 C-23.66580887 3.13376923 -24.66364899 3.13472595 -25.69172668 3.13571167 C-27.78854435 3.13638874 -29.88536416 3.13456763 -31.98217773 3.13037109 C-35.18803602 3.1249991 -38.3937553 3.13034089 -41.59960938 3.13671875 C-43.64322947 3.13605822 -45.68684949 3.13477757 -47.73046875 3.1328125 C-48.68575974 3.13483673 -49.64105072 3.13686096 -50.62528992 3.13894653 C-51.96742302 3.13421829 -51.96742302 3.13421829 -53.33666992 3.12939453 C-54.11862228 3.12859894 -54.90057465 3.12780334 -55.70622253 3.12698364 C-58.21193663 2.98826718 -60.55313808 2.54499433 -63 2 C-63 1.67 -63 1.34 -63 1 C-62.41641724 1.00222061 -61.83283447 1.00444122 -61.23156738 1.00672913 C-55.13159805 1.02893415 -49.0316403 1.04396988 -42.93164062 1.05493164 C-40.65819838 1.05994564 -38.38475933 1.06675848 -36.11132812 1.07543945 C-32.83462736 1.08763383 -29.5579694 1.09325778 -26.28125 1.09765625 C-25.27259888 1.10281754 -24.26394775 1.10797882 -23.22473145 1.11329651 C-15.41958991 1.11391035 -7.78713498 -0.16223198 0 0 Z " fill="#7FC06F" transform="translate(343,208)"/>
<path d="M0 0 C1.32 0 2.64 0 4 0 C4.33 0.99 4.66 1.98 5 3 C9.29 3.33 13.58 3.66 18 4 C18.66 5.98 19.32 7.96 20 10 C7.6373365 8.13020214 7.6373365 8.13020214 3 5 C1.125 2.3125 1.125 2.3125 0 0 Z " fill="#168D62" transform="translate(247,181)"/>
<path d="M0 0 C2.10241603 -0.13496251 4.2072961 -0.23197307 6.3125 -0.3125 C7.48425781 -0.37050781 8.65601563 -0.42851562 9.86328125 -0.48828125 C13 0 13 0 14.91796875 2.51953125 C15.27503906 3.33808594 15.63210938 4.15664062 16 5 C12.5980513 7.09350689 9.94727588 7.17942163 6 7 C6.66 6.34 7.32 5.68 8 5 C7.05125 4.731875 6.1025 4.46375 5.125 4.1875 C2 3 2 3 0 0 Z " fill="#038A6B" transform="translate(384,231)"/>
<path d="M0 0 C0 0.33 0 0.66 0 1 C-3.51047308 1.79707923 -6.75444064 2.12835036 -10.3515625 2.1328125 C-11.36863281 2.13410156 -12.38570313 2.13539063 -13.43359375 2.13671875 C-15.01333984 2.13091797 -15.01333984 2.13091797 -16.625 2.125 C-17.65496094 2.12886719 -18.68492187 2.13273438 -19.74609375 2.13671875 C-26.54947057 2.12816104 -33.23696843 1.7354399 -40 1 C-40 0.67 -40 0.34 -40 0 C-26.56197991 -0.99825292 -13.44423703 -0.86952777 0 0 Z " fill="#1C9777" transform="translate(296,549)"/>
<path d="M0 0 C0.33 0 0.66 0 1 0 C1.77528479 3.42573937 2.11918778 6.57239245 2.09765625 10.08203125 C2.09282227 11.47905273 2.09282227 11.47905273 2.08789062 12.90429688 C2.07951172 13.86400391 2.07113281 14.82371094 2.0625 15.8125 C2.05798828 16.79154297 2.05347656 17.77058594 2.04882812 18.77929688 C2.03708684 21.18626111 2.02066419 23.59309857 2 26 C1.34 25.01 0.68 24.02 0 23 C-0.66 23.99 -1.32 24.98 -2 26 C-2.19865739 17.10456358 -2.33447255 8.67089803 0 0 Z " fill="#29997F" transform="translate(493,430)"/>
<path d="M0 0 C0.33 0 0.66 0 1 0 C0.99476318 0.7748877 0.98952637 1.54977539 0.98413086 2.34814453 C0.76080558 21.06185232 0.76080558 21.06185232 1.87890625 39.7265625 C2 42 2 42 1 44 C0.01 43.67 -0.98 43.34 -2 43 C-2 40.69 -2 38.38 -2 36 C-1.34 36 -0.68 36 0 36 C-0.24363281 34.53820312 -0.24363281 34.53820312 -0.4921875 33.046875 C-1.10010296 28.77213378 -1.15073572 24.56165298 -1.125 20.25 C-1.12306641 19.46447754 -1.12113281 18.67895508 -1.11914062 17.86962891 C-1.07482286 11.87565075 -0.73420478 5.95230301 0 0 Z " fill="#EBF8F2" transform="translate(117,428)"/>
<path d="M0 0 C4.29 0 8.58 0 13 0 C10 5 10 5 8 6 C5.44842345 6.0716735 2.92527029 6.09308442 0.375 6.0625 C-0.33140625 6.05798828 -1.0378125 6.05347656 -1.765625 6.04882812 C-3.51045275 6.03703875 -5.255237 6.01910324 -7 6 C-7 5.34 -7 4.68 -7 4 C-3.39006828 2.86519473 -0.0157673 2.89984233 3.75 2.9375 C5.50570313 2.95103516 5.50570313 2.95103516 7.296875 2.96484375 C8.18890625 2.97644531 9.0809375 2.98804688 10 3 C10 2.34 10 1.68 10 1 C6.7 1.33 3.4 1.66 0 2 C0 1.34 0 0.68 0 0 Z " fill="#F7B716" transform="translate(400,225)"/>
<path d="M0 0 C2.9746228 2.82984027 5.39997658 5.76065023 7.75 9.125 C8.67039062 10.42824219 8.67039062 10.42824219 9.609375 11.7578125 C11 14 11 14 11 16 C10.01 16.33 9.02 16.66 8 17 C8 15.35 8 13.7 8 12 C7.34 12 6.68 12 6 12 C5.67 12.66 5.34 13.32 5 14 C5 13.34 5 12.68 5 12 C3.35 11.67 1.7 11.34 0 11 C0.020625 10.071875 0.04125 9.14375 0.0625 8.1875 C0.15769604 4.97713989 0.15769604 4.97713989 -1 2 C-0.67 1.34 -0.34 0.68 0 0 Z " fill="#199374" transform="translate(419,260)"/>
<path d="M0 0 C-1 3 -1 3 -3 4 C-2.67 4.66 -2.34 5.32 -2 6 C-4.31 6 -6.62 6 -9 6 C-9 5.01 -9 4.02 -9 3 C-13.95 3 -18.9 3 -24 3 C-24 2.67 -24 2.34 -24 2 C-20.56416794 1.46773826 -17.12615705 0.95116762 -13.6875 0.4375 C-12.71103516 0.28603516 -11.73457031 0.13457031 -10.72851562 -0.02148438 C-9.32182617 -0.2293457 -9.32182617 -0.2293457 -7.88671875 -0.44140625 C-7.02264404 -0.57232666 -6.15856934 -0.70324707 -5.26831055 -0.83813477 C-3 -1 -3 -1 0 0 Z " fill="#DAEEEB" transform="translate(400,545)"/>
<path d="M0 0 C10.23 1.32 20.46 2.64 31 4 C31 4.33 31 4.66 31 5 C27.37 5.33 23.74 5.66 20 6 C20 6.33 20 6.66 20 7 C18.35 7 16.7 7 15 7 C15 6.34 15 5.68 15 5 C13.87851563 4.80083984 13.87851563 4.80083984 12.734375 4.59765625 C11.74953125 4.42105469 10.7646875 4.24445312 9.75 4.0625 C8.28820312 3.80146484 8.28820312 3.80146484 6.796875 3.53515625 C4.50278205 3.09620271 2.25708029 2.59651408 0 2 C0 1.34 0 0.68 0 0 Z " fill="#D9F3EE" transform="translate(212,544)"/>
<path d="M0 0 C12.00222145 2.18222208 12.00222145 2.18222208 15.25 6.1875 C15.8275 7.115625 16.405 8.04375 17 9 C16.67 9.66 16.34 10.32 16 11 C13.36 10.01 10.72 9.02 8 8 C8 7.34 8 6.68 8 6 C7.236875 5.71125 6.47375 5.4225 5.6875 5.125 C3 4 3 4 0 2 C0 1.34 0 0.68 0 0 Z " fill="#6EC37F" transform="translate(372,227)"/>
<path d="M0 0 C-1.125 1.9375 -1.125 1.9375 -3 4 C-5.8125 4.6875 -5.8125 4.6875 -9 5 C-10.670625 5.2784375 -10.670625 5.2784375 -12.375 5.5625 C-13.24125 5.706875 -14.1075 5.85125 -15 6 C-15 6.99 -15 7.98 -15 9 C-16.32 8.67 -17.64 8.34 -19 8 C-19 7.01 -19 6.02 -19 5 C-16.9635505 4.15399724 -14.92056513 3.3237175 -12.875 2.5 C-11.73804688 2.0359375 -10.60109375 1.571875 -9.4296875 1.09375 C-6.0528355 0.01684959 -3.51385272 -0.21360807 0 0 Z " fill="#72C9A1" transform="translate(238,72)"/>
<path d="M0 0 C3.28788824 3.11016455 5.83735988 6.01618925 8 10 C6.68 10 5.36 10 4 10 C4 10.66 4 11.32 4 12 C3.01 12.33 2.02 12.66 1 13 C-0.12880057 9.68885166 -1.21302675 6.41021743 -2 3 C-1.34 3 -0.68 3 0 3 C0 2.01 0 1.02 0 0 Z " fill="#F2F5EA" transform="translate(242,176)"/>
<path d="M0 0 C0.5534764 2.07553648 1 3.84365964 1 6 C0.34 6 -0.32 6 -1 6 C-1 6.66 -1 7.32 -1 8 C-0.34 8 0.32 8 1 8 C1 9.65 1 11.3 1 13 C-3.75 14.125 -3.75 14.125 -6 13 C-6 13.99 -6 14.98 -6 16 C-6.99 15.67 -7.98 15.34 -9 15 C-8.51789063 14.25234375 -8.03578125 13.5046875 -7.5390625 12.734375 C-6.90742188 11.74953125 -6.27578125 10.7646875 -5.625 9.75 C-4.99851562 8.77546875 -4.37203125 7.8009375 -3.7265625 6.796875 C-2.34865148 4.56478385 -1.11687358 2.36912578 0 0 Z " fill="#E3F3F1" transform="translate(486,490)"/>
<path d="M0 0 C6.6 0 13.2 0 20 0 C20 0.33 20 0.66 20 1 C14.72 1 9.44 1 4 1 C4 1.66 4 2.32 4 3 C4.66 3 5.32 3 6 3 C6 3.66 6 4.32 6 5 C4.741875 5.04125 3.48375 5.0825 2.1875 5.125 C1.47980469 5.14820313 0.77210938 5.17140625 0.04296875 5.1953125 C-2 5 -2 5 -5 3 C-6.65549531 2.61500109 -8.3222433 2.27206865 -10 2 C-10 1.67 -10 1.34 -10 1 C-2.25 0.875 -2.25 0.875 0 2 C0 1.34 0 0.68 0 0 Z " fill="#EFC031" transform="translate(402,242)"/>
<path d="M0 0 C1.216875 0.33 2.43375 0.66 3.6875 1 C6.27416291 1.66383384 8.17842361 1.99612123 10.875 1.9375 C11.57625 1.958125 12.2775 1.97875 13 2 C13.99 3.485 13.99 3.485 15 5 C12.8384772 7.00141 11.60911867 7.96794112 8.625 8.125 C4.67824454 6.43353338 2.5565176 3.36476371 0 0 Z " fill="#FCFBF3" transform="translate(376,207)"/>
<path d="M0 0 C4.69564393 3.31457218 7.72469104 7.36279281 11 12 C5.65155992 11.46515599 1.64203897 9.53309233 -3 7 C-3 6.67 -3 6.34 -3 6 C-1.02 6 0.96 6 3 6 C3 5.34 3 4.68 3 4 C1.68 3.34 0.36 2.68 -1 2 C-0.67 1.34 -0.34 0.68 0 0 Z " fill="#2C9464" transform="translate(371,202)"/>
<path d="M0 0 C3.45119303 2.30079535 3.87254971 3.10950252 5 7 C5.21447731 9.69350073 5.32498534 12.24815841 5.3125 14.9375 C5.32861328 15.62779297 5.34472656 16.31808594 5.36132812 17.02929688 C5.36581842 21.76655571 4.40664672 24.94235553 2 29 C1.67 29 1.34 29 1 29 C1 27.35 1 25.7 1 24 C1.66 24 2.32 24 3 24 C2.67 23.34 2.34 22.68 2 22 C1.93049459 20.45976004 1.91547643 18.91665012 1.9375 17.375 C1.94652344 16.55773437 1.95554687 15.74046875 1.96484375 14.8984375 C1.97644531 14.27195312 1.98804688 13.64546875 2 13 C2.33 13 2.66 13 3 13 C3.33 11.35 3.66 9.7 4 8 C3.01 7.67 2.02 7.34 1 7 C0.67 4.69 0.34 2.38 0 0 Z " fill="#69C59F" transform="translate(322,379)"/>
<path d="M0 0 C0.66 0.99 1.32 1.98 2 3 C1.27231556 6.19061641 0.46534977 9.06930047 -1 12 C-2.98 12 -4.96 12 -7 12 C-7 11.01 -7 10.02 -7 9 C-6.34 9 -5.68 9 -5 9 C-4.731875 8.2575 -4.46375 7.515 -4.1875 6.75 C-3.05770579 4.13363446 -1.79106798 2.19812889 0 0 Z M1 8 C1.33 8.66 1.66 9.32 2 10 C1.34 9.67 0.68 9.34 0 9 C0.33 8.67 0.66 8.34 1 8 Z " fill="#76CDA6" transform="translate(181,276)"/>
<path d="M0 0 C6.625 0.75 6.625 0.75 10 3 C9.37351563 3.19335938 8.74703125 3.38671875 8.1015625 3.5859375 C7.28429687 3.84632813 6.46703125 4.10671875 5.625 4.375 C4.81289062 4.63023437 4.00078125 4.88546875 3.1640625 5.1484375 C0.83540815 5.89854283 0.83540815 5.89854283 -1 8 C-1.33 7.01 -1.66 6.02 -2 5 C-2.33 6.65 -2.66 8.3 -3 10 C-3.33 10 -3.66 10 -4 10 C-4 8.02 -4 6.04 -4 4 C-2.68 3.34 -1.36 2.68 0 2 C0 1.34 0 0.68 0 0 Z " fill="#F0BC1D" transform="translate(246,186)"/>
<path d="M0 0 C3.56695591 1.1889853 4.28715826 2.34748618 6.5 5.3125 C7.38171875 6.48232422 7.38171875 6.48232422 8.28125 7.67578125 C9.13203125 8.82626953 9.13203125 8.82626953 10 10 C10.99963646 11.33360591 11.99951202 12.66703279 13 14 C11.02 14.33 9.04 14.66 7 15 C6.61781233 13.34385343 6.28604898 11.67542976 6 10 C6.33 9.67 6.66 9.34 7 9 C6.21625 8.814375 5.4325 8.62875 4.625 8.4375 C2 7 2 7 0.6875 3.375 C0.460625 2.26125 0.23375 1.1475 0 0 Z " fill="#69C59D" transform="translate(317,304)"/>
<path d="M0 0 C2.6796875 0.05859375 2.6796875 0.05859375 5.875 0.4375 C9.55180664 0.86661134 12.45758008 1.17225007 16 0 C16 0.66 16 1.32 16 2 C16.66 2.33 17.32 2.66 18 3 C14.37 3.66 10.74 4.32 7 5 C6.67 4.01 6.34 3.02 6 2 C3.36 2 0.72 2 -2 2 C-1.34 1.34 -0.68 0.68 0 0 Z " fill="#109071" transform="translate(402,537)"/>
<path d="M0 0 C1.07765625 0.19464844 2.1553125 0.38929688 3.265625 0.58984375 C4.08546875 0.74582031 4.9053125 0.90179688 5.75 1.0625 C4.76 1.7225 3.77 2.3825 2.75 3.0625 C3.74 3.7225 4.73 4.3825 5.75 5.0625 C0.24191603 4.47234815 -4.89878069 3.49586231 -10.25 2.0625 C-10.25 1.4025 -10.25 0.7425 -10.25 0.0625 C-6.59606463 -1.20573485 -3.75929974 -0.69465321 0 0 Z " fill="#E3B618" transform="translate(266.25,202.9375)"/>
<path d="M0 0 C0.66 0.66 1.32 1.32 2 2 C2.33 1.34 2.66 0.68 3 0 C3.66 0 4.32 0 5 0 C5 3.63 5 7.26 5 11 C2 11 2 11 0.25 10 C-1.81442074 6.69692681 -0.67509603 3.74371434 0 0 Z " fill="#F5F6EF" transform="translate(370,192)"/>
<path d="M0 0 C0.99386719 0.10183594 1.98773438 0.20367187 3.01171875 0.30859375 C3.77097656 0.39238281 4.53023438 0.47617188 5.3125 0.5625 C4.9825 1.2225 4.6525 1.8825 4.3125 2.5625 C2.33668171 2.82594244 0.35910054 3.08211352 -1.625 3.2734375 C-3.85664342 3.49980455 -3.85664342 3.49980455 -6.4375 4.6875 C-9.01289218 5.6890414 -10.13863485 5.50652413 -12.6875 4.5625 C-12.0275 4.5625 -11.3675 4.5625 -10.6875 4.5625 C-10.6875 3.9025 -10.6875 3.2425 -10.6875 2.5625 C-10.0275 2.5625 -9.3675 2.5625 -8.6875 2.5625 C-8.6875 1.9025 -8.6875 1.2425 -8.6875 0.5625 C-5.3763987 -0.54120043 -3.44001051 -0.36423641 0 0 Z " fill="#FDF4E3" transform="translate(416.6875,209.4375)"/>
<path d="M0 0 C0.27263672 0.83144531 0.27263672 0.83144531 0.55078125 1.6796875 C0.80214844 2.40414062 1.05351562 3.12859375 1.3125 3.875 C1.55613281 4.59429687 1.79976562 5.31359375 2.05078125 6.0546875 C2.96335547 8.33994905 2.96335547 8.33994905 6 10 C4.265625 10.74609375 4.265625 10.74609375 2 11 C-0.140625 9.34765625 -0.140625 9.34765625 -2.25 7.0625 C-2.95640625 6.31097656 -3.6628125 5.55945313 -4.390625 4.78515625 C-4.92171875 4.19605469 -5.4528125 3.60695312 -6 3 C-3.89377581 0.89377581 -2.98199855 0 0 0 Z " fill="#148F6F" transform="translate(222,144)"/>
<path d="M0 0 C4.95 0 9.9 0 15 0 C12.07735566 1.46132217 10.07536854 2.34099246 7 3 C7 4.65 7 6.3 7 8 C6.01 7.34 5.02 6.68 4 6 C4 5.34 4 4.68 4 4 C3.01 3.67 2.02 3.34 1 3 C0.67 2.01 0.34 1.02 0 0 Z " fill="#F6FCF4" transform="translate(397,231)"/>
<path d="M0 0 C0.33 0.66 0.66 1.32 1 2 C2.64551962 2.71727778 4.31422289 3.38325228 6 4 C6.66 4.33 7.32 4.66 8 5 C7.67 5.99 7.34 6.98 7 8 C4.03 7.67 1.06 7.34 -2 7 C-1.125 1.125 -1.125 1.125 0 0 Z " fill="#EDBC2F" transform="translate(362,184)"/>
<path d="M0 0 C-0.99 1.485 -0.99 1.485 -2 3 C-1.67 3.66 -1.34 4.32 -1 5 C-5.455 5.495 -5.455 5.495 -10 6 C-10 5.34 -10 4.68 -10 4 C-10.66 3.34 -11.32 2.68 -12 2 C-10.37787941 1.47026689 -8.75218416 0.95146893 -7.125 0.4375 C-6.22007812 0.14746094 -5.31515625 -0.14257812 -4.3828125 -0.44140625 C-2 -1 -2 -1 0 0 Z " fill="#EDF7F7" transform="translate(432,537)"/>
<path d="M0 0 C8.57142857 -0.14285714 8.57142857 -0.14285714 12 1 C12 1.66 12 2.32 12 3 C13.32 3.33 14.64 3.66 16 4 C9.9981863 4.21824777 4.80766296 3.5056904 -1 2 C-0.67 1.34 -0.34 0.68 0 0 Z " fill="#0C8F6E" transform="translate(352,545)"/>
<path d="M0 0 C3.63 0 7.26 0 11 0 C11 0.99 11 1.98 11 3 C11.66 3 12.32 3 13 3 C13.625 5.875 13.625 5.875 14 9 C13.34 9.66 12.68 10.32 12 11 C11.01 7.7 10.02 4.4 9 1 C4.545 1.495 4.545 1.495 0 2 C0 1.34 0 0.68 0 0 Z " fill="#7CCDA9" transform="translate(264,389)"/>
<path d="M0 0 C0.99 0.33 1.98 0.66 3 1 C3.25 7.625 3.25 7.625 1 11 C-0.32 11 -1.64 11 -3 11 C-2.01 7.37 -1.02 3.74 0 0 Z " fill="#68C99F" transform="translate(131,372)"/>
<path d="M0 0 C2.8125 0.9375 2.8125 0.9375 4.8125 2.9375 C3.69875 3.040625 2.585 3.14375 1.4375 3.25 C0.24125 3.476875 -0.955 3.70375 -2.1875 3.9375 C-3.1775 5.4225 -3.1775 5.4225 -4.1875 6.9375 C-5.5075 6.2775 -6.8275 5.6175 -8.1875 4.9375 C-4.0275 -0.07897059 -4.0275 -0.07897059 0 0 Z " fill="#6BC592" transform="translate(245.1875,200.0625)"/>
<path d="M0 0 C0 0.99 0 1.98 0 3 C0.20496094 3.63421875 0.40992188 4.2684375 0.62109375 4.921875 C1.12073997 7.66220272 0.38867658 8.83876986 -0.9375 11.25 C-1.31777344 11.95640625 -1.69804687 12.6628125 -2.08984375 13.390625 C-2.39019531 13.92171875 -2.69054687 14.4528125 -3 15 C-3.33 14.34 -3.66 13.68 -4 13 C-3.0625 10.375 -3.0625 10.375 -2 8 C-2.66 8 -3.32 8 -4 8 C-4.33 6.68 -4.66 5.36 -5 4 C-3.35 2.68 -1.7 1.36 0 0 Z " fill="#48B888" transform="translate(374,104)"/>
<path d="M0 0 C2.40804568 2.40804568 3.00768759 4.42203775 4.125 7.625 C4.47820312 8.62789063 4.83140625 9.63078125 5.1953125 10.6640625 C5.46085938 11.43492187 5.72640625 12.20578125 6 13 C5.01 13.495 5.01 13.495 4 14 C3.67 13.34 3.34 12.68 3 12 C2.34 12.66 1.68 13.32 1 14 C0.67 9.38 0.34 4.76 0 0 Z " fill="#72C7A2" transform="translate(250,408)"/>
<path d="M0 0 C0.66 0.33 1.32 0.66 2 1 C2.99 1 3.98 1 5 1 C3.50902342 4.7952131 1.24299151 6.61042731 -2 9 C-2.125 5.625 -2.125 5.625 -2 2 C-1.34 1.34 -0.68 0.68 0 0 Z " fill="#169172" transform="translate(407,128)"/>
<path d="M0 0 C0.99 0 1.98 0 3 0 C3 2.64 3 5.28 3 8 C1.35 8.66 -0.3 9.32 -2 10 C-1.34 6.7 -0.68 3.4 0 0 Z " fill="#E9F4F3" transform="translate(492,472)"/>
<path d="M0 0 C2.18697502 2.79624958 3.99152813 5.63307872 5.6875 8.75 C6.12449219 9.54921875 6.56148438 10.3484375 7.01171875 11.171875 C7.33785156 11.77515625 7.66398437 12.3784375 8 13 C7.01 13 6.02 13 5 13 C5 12.01 5 11.02 5 10 C3.68 9.67 2.36 9.34 1 9 C0.29925156 5.846632 0 3.27275026 0 0 Z " fill="#6FC79F" transform="translate(261,334)"/>
<path d="M0 0 C0.66 0.33 1.32 0.66 2 1 C2 2.65 2 4.3 2 6 C0.02253397 6.73080266 -1.98072489 7.39421747 -4 8 C-4.66 7.67 -5.32 7.34 -6 7 C-4.02 4.69 -2.04 2.38 0 0 Z " fill="#E2F1EE" transform="translate(390,152)"/>
<path d="M0 0 C-0.33 0.99 -0.66 1.98 -1 3 C-7.27 2.67 -13.54 2.34 -20 2 C-20 1.67 -20 1.34 -20 1 C-13.31184516 0.37577221 -6.71884955 -0.12920865 0 0 Z " fill="#D1EDE9" transform="translate(376,548)"/>
<path d="M0 0 C0.33 0 0.66 0 1 0 C1.24979445 1.91408757 1.47408014 3.83151611 1.6875 5.75 C1.87892578 7.35101563 1.87892578 7.35101563 2.07421875 8.984375 C1.99001814 12.40557866 1.30925485 13.55420823 -1 16 C-1.85330338 10.16524985 -2.48351814 5.55139349 0 0 Z " fill="#108C6E" transform="translate(491,416)"/>
<path d="M0 0 C0.66 2.64 1.32 5.28 2 8 C0 8 0 8 -1.625 6.5 C-2.07875 6.005 -2.5325 5.51 -3 5 C-3 6.65 -3 8.3 -3 10 C-5 6.25 -5 6.25 -5 4 C-4.34 4 -3.68 4 -3 4 C-3.33 3.01 -3.66 2.02 -4 1 C-2 0 -2 0 0 0 Z " fill="#E9B812" transform="translate(349,208)"/>
<path d="M0 0 C2.3125 -0.1875 2.3125 -0.1875 5 0 C6.02104551 0.97850195 7.0206121 1.97980427 8 3 C10.60611077 3.72197162 10.60611077 3.72197162 13 4 C13 4.33 13 4.66 13 5 C11.58344207 5.0272415 10.16672955 5.04650467 8.75 5.0625 C7.56664062 5.07990234 7.56664062 5.07990234 6.359375 5.09765625 C4.09308998 5.00385306 2.1711105 4.63241063 0 4 C0 2.68 0 1.36 0 0 Z " fill="#4FBF8D" transform="translate(320,513)"/>
<path d="M0 0 C0 0.99 0 1.98 0 3 C-0.99 3.33 -1.98 3.66 -3 4 C-3.061875 4.763125 -3.12375 5.52625 -3.1875 6.3125 C-4 9 -4 9 -6.4375 10.875 C-7.7059375 11.431875 -7.7059375 11.431875 -9 12 C-9.66 11.67 -10.32 11.34 -11 11 C-9.88200014 9.66079162 -8.75538103 8.32877444 -7.625 7 C-6.99851562 6.2575 -6.37203125 5.515 -5.7265625 4.75 C-5.15679687 4.1725 -4.58703125 3.595 -4 3 C-3.34 3 -2.68 3 -2 3 C-2 2.34 -2 1.68 -2 1 C-1.34 0.67 -0.68 0.34 0 0 Z " fill="#DAF1EE" transform="translate(402,140)"/>
<path d="M0 0 C-1.44518781 3.3721049 -3.12350453 5.69880363 -6 8 C-8.75 8.25 -8.75 8.25 -11 8 C-3.21621622 0 -3.21621622 0 0 0 Z " fill="#DBECE9" transform="translate(427,119)"/>
<path d="M0 0 C0.66 1.32 1.32 2.64 2 4 C-0.31 4.66 -2.62 5.32 -5 6 C-5.66 5.34 -6.32 4.68 -7 4 C-6.67 3.01 -6.34 2.02 -6 1 C-4.02 0.67 -2.04 0.34 0 0 Z " fill="#108F70" transform="translate(440,528)"/>
<path d="M0 0 C0.66 1.32 1.32 2.64 2 4 C1.360625 4.28875 0.72125 4.5775 0.0625 4.875 C-2.15206079 5.82823451 -2.15206079 5.82823451 -3 8 C-6.0625 8.625 -6.0625 8.625 -9 9 C-6 6 -3 3 0 0 Z " fill="#72CBA4" transform="translate(342,427)"/>
<path d="M0 0 C0.99 1.32 1.98 2.64 3 4 C1.66666667 6.66666667 0.33333333 9.33333333 -1 12 C-1.2226746 10.56465159 -1.42761906 9.12654475 -1.625 7.6875 C-1.74101562 6.88699219 -1.85703125 6.08648437 -1.9765625 5.26171875 C-2 3 -2 3 0 0 Z " fill="#128E73" transform="translate(475,360)"/>
<path d="M0 0 C0.33 0 0.66 0 1 0 C1 1.98 1 3.96 1 6 C0.01 6 -0.98 6 -2 6 C-2.66 7.65 -3.32 9.3 -4 11 C-4.99 10.67 -5.98 10.34 -7 10 C-5.85821872 8.33055479 -4.71147095 6.6645052 -3.5625 5 C-2.92441406 4.071875 -2.28632813 3.14375 -1.62890625 2.1875 C-1.09136719 1.465625 -0.55382812 0.74375 0 0 Z " fill="#73C8A1" transform="translate(203,245)"/>
<path d="M0 0 C0.66 0.33 1.32 0.66 2 1 C0.87895467 2.31587941 -0.24696965 3.62760353 -1.375 4.9375 C-2.00148438 5.66839844 -2.62796875 6.39929688 -3.2734375 7.15234375 C-5 9 -5 9 -7 10 C-7 8.68 -7 7.36 -7 6 C-6.34 6 -5.68 6 -5 6 C-5 5.01 -5 4.02 -5 3 C-4.34 3 -3.68 3 -3 3 C-1.37485532 1.54166642 -1.37485532 1.54166642 0 0 Z " fill="#178E71" transform="translate(396,143)"/>
<path d="M0 0 C3.3 0 6.6 0 10 0 C7 3 7 3 4.08203125 3.29296875 C3.00308594 3.25816406 1.92414063 3.22335937 0.8125 3.1875 C-0.27417969 3.16042969 -1.36085937 3.13335938 -2.48046875 3.10546875 C-3.72763672 3.05326172 -3.72763672 3.05326172 -5 3 C-5 2.67 -5 2.34 -5 2 C-3.35 1.67 -1.7 1.34 0 1 C0 0.67 0 0.34 0 0 Z " fill="#4BBA8D" transform="translate(221,516)"/>
<path d="M0 0 C0.66 0.99 1.32 1.98 2 3 C1.67 3.99 1.34 4.98 1 6 C-0.32 6 -1.64 6 -3 6 C-3 6.66 -3 7.32 -3 8 C-4.32 8.33 -5.64 8.66 -7 9 C-6.02180976 7.68677212 -5.0424189 6.37443848 -4.0625 5.0625 C-3.51722656 4.33160156 -2.97195312 3.60070312 -2.41015625 2.84765625 C-1 1 -1 1 0 0 Z " fill="#72CAA2" transform="translate(236,206)"/>
<path d="M0 0 C0.33 0.66 0.66 1.32 1 2 C1.66 2.33 2.32 2.66 3 3 C2.34 3 1.68 3 1 3 C0.731875 3.639375 0.46375 4.27875 0.1875 4.9375 C-1 7 -1 7 -4 8 C-4.66 7.34 -5.32 6.68 -6 6 C-4.02 4.02 -2.04 2.04 0 0 Z " fill="#148F72" transform="translate(193,107)"/>
<path d="M0 0 C-2.6860286 1.79068573 -4.6626589 2.66055791 -7.6875 3.625 C-8.49574219 3.88539062 -9.30398437 4.14578125 -10.13671875 4.4140625 C-10.75160156 4.60742188 -11.36648437 4.80078125 -12 5 C-12 3.68 -12 2.36 -12 1 C-7.9472484 0.01751476 -4.16138263 -0.08159574 0 0 Z " fill="#E4F4F4" transform="translate(224,90)"/>
<path d="M0 0 C2.125 0.375 2.125 0.375 4 1 C4 1.66 4 2.32 4 3 C4.66 3.33 5.32 3.66 6 4 C5.34 4 4.68 4 4 4 C4 4.66 4 5.32 4 6 C2.35 5.67 0.7 5.34 -1 5 C-1.33 4.01 -1.66 3.02 -2 2 C-1.34 1.34 -0.68 0.68 0 0 Z " fill="#DCE5E1" transform="translate(330,351)"/>
<path d="M0 0 C2.475 0.99 2.475 0.99 5 2 C5.66 1.34 6.32 0.68 7 0 C7.99 0.33 8.98 0.66 10 1 C9.34 1 8.68 1 8 1 C8 1.66 8 2.32 8 3 C8.99 3.33 9.98 3.66 11 4 C9.25 5.125 9.25 5.125 7 6 C4.75 5.125 4.75 5.125 3 4 C3 3.34 3 2.68 3 2 C2.01 1.67 1.02 1.34 0 1 C0 0.67 0 0.34 0 0 Z " fill="#69C89E" transform="translate(291,329)"/>
<path d="M0 0 C4.51617599 -0.07654536 8.59085217 -0.10228696 13 1 C13 1.33 13 1.66 13 2 C8.9472484 2.98248524 5.16138263 3.08159574 1 3 C0.67 2.01 0.34 1.02 0 0 Z " fill="#EDB212" transform="translate(251,189)"/>
<path d="M0 0 C1.33332095 2.6666419 0.67102033 4.16680303 0 7 C-0.66 7 -1.32 7 -2 7 C-2 9.64 -2 12.28 -2 15 C-2.66 14.34 -3.32 13.68 -4 13 C-3.7424922 7.76400814 -3.1188186 4.33922588 0 0 Z " fill="#C2E2D2" transform="translate(263,297)"/>
<path d="M0 0 C0.66 0 1.32 0 2 0 C2 0.66 2 1.32 2 2 C2.99 2.33 3.98 2.66 5 3 C6.6875 5.5625 6.6875 5.5625 8 8 C6.35 8.66 4.7 9.32 3 10 C3.33 8.02 3.66 6.04 4 4 C2.68 4.33 1.36 4.66 0 5 C0 3.35 0 1.7 0 0 Z " fill="#80BF6F" transform="translate(357,235)"/>
<path d="M0 0 C1.65 0 3.3 0 5 0 C5 0.66 5 1.32 5 2 C6.65 2.33 8.3 2.66 10 3 C9.67 3.66 9.34 4.32 9 5 C5.58978257 4.21302675 2.31114834 3.12880057 -1 2 C-0.67 1.34 -0.34 0.68 0 0 Z " fill="#1D9575" transform="translate(173,531)"/>
<path d="M0 0 C0.79560764 2.91499943 1.25322499 5.74561419 1.5625 8.75 C1.64628906 9.54921875 1.73007812 10.3484375 1.81640625 11.171875 C1.87699219 11.77515625 1.93757813 12.3784375 2 13 C-0.34914492 10.65085508 -0.73140357 9.04320554 -1.625 5.875 C-1.88539063 4.96492188 -2.14578125 4.05484375 -2.4140625 3.1171875 C-2.60742188 2.41851562 -2.80078125 1.71984375 -3 1 C-2.01 0.67 -1.02 0.34 0 0 Z " fill="#D9F1EE" transform="translate(478,357)"/>
<path d="M0 0 C0.763125 0.20625 1.52625 0.4125 2.3125 0.625 C2.3125 1.285 2.3125 1.945 2.3125 2.625 C2.9725 2.955 3.6325 3.285 4.3125 3.625 C4.3125 4.285 4.3125 4.945 4.3125 5.625 C-0.6875 3.625 -0.6875 3.625 -5.6875 1.625 C-2.6875 -0.375 -2.6875 -0.375 0 0 Z " fill="#D9E7DE" transform="translate(301.6875,362.375)"/>
<path d="M0 0 C1.32 1.32 2.64 2.64 4 4 C3.34 5.65 2.68 7.3 2 9 C1.67 8.01 1.34 7.02 1 6 C0.34 6 -0.32 6 -1 6 C-1.042721 4.33388095 -1.04063832 2.66617115 -1 1 C-0.67 0.67 -0.34 0.34 0 0 Z " fill="#139171" transform="translate(437,287)"/>
<path d="M0 0 C0.66 0 1.32 0 2 0 C3.7143618 1.95927063 5.38405168 3.95880212 7 6 C6.67 6.66 6.34 7.32 6 8 C0.24268105 5.55007704 0.24268105 5.55007704 -0.9375 2.875 C-0.958125 2.25625 -0.97875 1.6375 -1 1 C-0.67 0.67 -0.34 0.34 0 0 Z " fill="#55BE8D" transform="translate(382,230)"/>
<path d="M0 0 C0.8971875 0.7734375 0.8971875 0.7734375 1.8125 1.5625 C1.8125 2.2225 1.8125 2.8825 1.8125 3.5625 C-2.1875 2.22916667 -6.1875 0.89583333 -10.1875 -0.4375 C-10.1875 -0.7675 -10.1875 -1.0975 -10.1875 -1.4375 C-5.93170525 -2.47269332 -3.76701762 -2.47546872 0 0 Z " fill="#D5EFEA" transform="translate(400.1875,92.4375)"/>
<path d="M0 0 C3.9492568 0.55105909 7.34920174 1.38935371 11 3 C11 3.33 11 3.66 11 4 C8.36 4.33 5.72 4.66 3 5 C3 4.01 3 3.02 3 2 C2.01 2 1.02 2 0 2 C0 1.34 0 0.68 0 0 Z " fill="#D7EBE6" transform="translate(181,536)"/>
<path d="M0 0 C0.33 1.65 0.66 3.3 1 5 C-1.31 5 -3.62 5 -6 5 C-6 4.01 -6 3.02 -6 2 C-2.25 0 -2.25 0 0 0 Z M2 1 C2.33 1.66 2.66 2.32 3 3 C2.34 2.67 1.68 2.34 1 2 C1.33 1.67 1.66 1.34 2 1 Z " fill="#67CAA1" transform="translate(180,283)"/>
<path d="M0 0 C0 1.98 0 3.96 0 6 C-0.99 6.33 -1.98 6.66 -3 7 C-3.99 5.68 -4.98 4.36 -6 3 C-2.25 0 -2.25 0 0 0 Z " fill="#109071" transform="translate(240,163)"/>
<path d="M0 0 C0.33 0.66 0.66 1.32 1 2 C-0.65 3.65 -2.3 5.3 -4 7 C-4.99 6.01 -5.98 5.02 -7 4 C-4.61426621 2.10786631 -2.92824652 0.97608217 0 0 Z " fill="#189274" transform="translate(214,94)"/>
<path d="M0 0 C0.66 1.32 1.32 2.64 2 4 C-0.31 5.98 -2.62 7.96 -5 10 C-5.66 9.67 -6.32 9.34 -7 9 C-4.69 6.03 -2.38 3.06 0 0 Z " fill="#169872" transform="translate(444,469)"/>
<path d="M0 0 C4.75 1.875 4.75 1.875 7 3 C6.67 4.65 6.34 6.3 6 8 C3.33264727 5.51047079 1.44253657 3.36591866 0 0 Z " fill="#EFF5F6" transform="translate(424,266)"/>
<path d="M0 0 C0.99 0.33 1.98 0.66 3 1 C3.33 1.99 3.66 2.98 4 4 C4.66 4.33 5.32 4.66 6 5 C6 5.66 6 6.32 6 7 C4.02 7 2.04 7 0 7 C0 4.69 0 2.38 0 0 Z " fill="#058767" transform="translate(368,201)"/>
<path d="M0 0 C0.99 0.33 1.98 0.66 3 1 C0.03 4.96 0.03 4.96 -3 9 C-3.33 8.34 -3.66 7.68 -4 7 C-3.22265625 5.2734375 -3.22265625 5.2734375 -2.0625 3.375 C-1.381875 2.26125 -0.70125 1.1475 0 0 Z " fill="#159670" transform="translate(380,98)"/>
<path d="M0 0 C1.625 1.6875 1.625 1.6875 3 4 C2.1875 6.75 2.1875 6.75 1 9 C0.67 8.01 0.34 7.02 0 6 C-0.66 5.67 -1.32 5.34 -2 5 C-1.34 3.35 -0.68 1.7 0 0 Z " fill="#139173" transform="translate(467,341)"/>
<path d="M0 0 C0.99 0.33 1.98 0.66 3 1 C2.67 2.65 2.34 4.3 2 6 C0.02 5.34 -1.96 4.68 -4 4 C-3.01 3.67 -2.02 3.34 -1 3 C-0.67 2.01 -0.34 1.02 0 0 Z " fill="#62C69A" transform="translate(328,344)"/>
<path d="M0 0 C0.928125 0.20625 1.85625 0.4125 2.8125 0.625 C0.8325 1.615 0.8325 1.615 -1.1875 2.625 C-1.1875 3.285 -1.1875 3.945 -1.1875 4.625 C-2.8375 4.295 -4.4875 3.965 -6.1875 3.625 C-6.1875 2.965 -6.1875 2.305 -6.1875 1.625 C-3.1875 -0.375 -3.1875 -0.375 0 0 Z " fill="#63C389" transform="translate(377.1875,250.375)"/>
<path d="M0 0 C1.0625 1.8125 1.0625 1.8125 2 4 C1.67 4.99 1.34 5.98 1 7 C-0.32 6.67 -1.64 6.34 -3 6 C-2.42655063 3.13275314 -2.1385485 2.1385485 0 0 Z " fill="#E9F2EC" transform="translate(366,180)"/>
<path d="M0 0 C1.5 1.25 1.5 1.25 3 3 C3 4.32 3 5.64 3 7 C1.68 7 0.36 7 -1 7 C-1.33 5.68 -1.66 4.36 -2 3 C-1.34 3 -0.68 3 0 3 C0 2.01 0 1.02 0 0 Z " fill="#EFF7F7" transform="translate(242,176)"/>
<path d="M0 0 C0.99 1.32 1.98 2.64 3 4 C2.01 4.495 2.01 4.495 1 5 C1 5.66 1 6.32 1 7 C-0.32 6.67 -1.64 6.34 -3 6 C-1.125 1.125 -1.125 1.125 0 0 Z " fill="#70CCA3" transform="translate(173,288)"/>
<path d="M0 0 C0.66 0 1.32 0 2 0 C3.5078125 1.75 3.5078125 1.75 5.125 4 C5.66382813 4.7425 6.20265625 5.485 6.7578125 6.25 C7.16773438 6.8275 7.57765625 7.405 8 8 C6.35 7.67 4.7 7.34 3 7 C2.67 6.01 2.34 5.02 2 4 C1.34 3.67 0.68 3.34 0 3 C0 2.01 0 1.02 0 0 Z " fill="#CEEADC" transform="translate(336,284)"/>
<path d="M0 0 C1.70884005 1.62339805 3.37446717 3.29319053 5 5 C5 5.66 5 6.32 5 7 C3.35 7 1.7 7 0 7 C0.33 5.68 0.66 4.36 1 3 C0.34 3 -0.32 3 -1 3 C-0.67 2.01 -0.34 1.02 0 0 Z " fill="#32986C" transform="translate(400,235)"/>
<path d="M0 0 C1.98 0.99 1.98 0.99 4 2 C4 2.99 4 3.98 4 5 C4.99 5.33 5.98 5.66 7 6 C3.98968256 6.93423645 3.13349732 7.04449911 0 6 C0.66 6 1.32 6 2 6 C1.34 4.02 0.68 2.04 0 0 Z " fill="#E1B819" transform="translate(368,224)"/>
<path d="M0 0 C5.75 1.75 5.75 1.75 8 4 C7.67 4.99 7.34 5.98 7 7 C5.83040013 6.02433888 4.66438823 5.044375 3.5 4.0625 C2.8503125 3.51722656 2.200625 2.97195312 1.53125 2.41015625 C1.0259375 1.94480469 0.520625 1.47945312 0 1 C0 0.67 0 0.34 0 0 Z " fill="#DBECEA" transform="translate(376,207)"/>
<path d="M0 0 C0.99 0.99 1.98 1.98 3 3 C2.67 3.66 2.34 4.32 2 5 C-0.97 4.505 -0.97 4.505 -4 4 C-2.68 2.68 -1.36 1.36 0 0 Z " fill="#E7F4F1" transform="translate(468,515)"/>
<path d="M0 0 C0.33 0.66 0.66 1.32 1 2 C1.66 2 2.32 2 3 2 C3.33 3.98 3.66 5.96 4 8 C2.02 6.35 0.04 4.7 -2 3 C-1.34 2.67 -0.68 2.34 0 2 C0 1.34 0 0.68 0 0 Z " fill="#2A997E" transform="translate(143,510)"/>
<path d="M0 0 C0.99 0.33 1.98 0.66 3 1 C2.67 1.66 2.34 2.32 2 3 C1.64830932 4.32860925 1.31229724 5.66158328 1 7 C-0.32 6.67 -1.64 6.34 -3 6 C-1.125 1.125 -1.125 1.125 0 0 Z " fill="#6ECBA3" transform="translate(189,264)"/>
<path d="M0 0 C0.66 0 1.32 0 2 0 C2.66 0.66 3.32 1.32 4 2 C4.99 2.33 5.98 2.66 7 3 C7 4.65 7 6.3 7 8 C6.01 7.34 5.02 6.68 4 6 C4 5.34 4 4.68 4 4 C3.01 3.67 2.02 3.34 1 3 C0.67 2.01 0.34 1.02 0 0 Z " fill="#D0E8E0" transform="translate(397,231)"/>
<path d="M0 0 C4.29 0 8.58 0 13 0 C13 0.33 13 0.66 13 1 C11.72125 1.12375 10.4425 1.2475 9.125 1.375 C5.65209064 1.69042399 5.65209064 1.69042399 3 4 C2.01 2.68 1.02 1.36 0 0 Z " fill="#24925E" transform="translate(384,231)"/>
<path d="M0 0 C1.65 0.33 3.3 0.66 5 1 C5.33 2.65 5.66 4.3 6 6 C3.36 5.67 0.72 5.34 -2 5 C-2 4.67 -2 4.34 -2 4 C-0.35 4 1.3 4 3 4 C3 3.01 3 2.02 3 1 C2.01 0.67 1.02 0.34 0 0 Z " fill="#238F5C" transform="translate(261,185)"/>
<path d="M0 0 C1.32 0 2.64 0 4 0 C4.33 0.99 4.66 1.98 5 3 C5.99 3.66 6.98 4.32 8 5 C6.68 5.33 5.36 5.66 4 6 C0 1.125 0 1.125 0 0 Z " fill="#26936C" transform="translate(247,181)"/>
<path d="M0 0 C0.66 0.33 1.32 0.66 2 1 C0.35 2.65 -1.3 4.3 -3 6 C-3 5.34 -3 4.68 -3 4 C-4.65 4.33 -6.3 4.66 -8 5 C-5.45378681 2.99940392 -3.01962385 1.20784954 0 0 Z " fill="#DDF2EF" transform="translate(450,527)"/>
<path d="M0 0 C0.66 0 1.32 0 2 0 C1.40072174 3.35595828 0.15377564 5.37801226 -2 8 C-2.99 7.67 -3.98 7.34 -5 7 C-4.01 6.67 -3.02 6.34 -2 6 C-0.77479736 2.99152582 -0.77479736 2.99152582 0 0 Z " fill="#DAEBE4" transform="translate(325,404)"/>
<path d="M0 0 C4.42857143 5.14285714 4.42857143 5.14285714 5 9 C2 8 2 8 0.875 6.0625 C0.58625 5.381875 0.2975 4.70125 0 4 C-0.33 3.34 -0.66 2.68 -1 2 C-0.67 1.34 -0.34 0.68 0 0 Z " fill="#3EA088" transform="translate(442,294)"/>
<path d="M0 0 C0.66 0.99 1.32 1.98 2 3 C1.34 3.66 0.68 4.32 0 5 C-0.66 4.67 -1.32 4.34 -2 4 C-2 4.66 -2 5.32 -2 6 C-2.66 6 -3.32 6 -4 6 C-4 6.66 -4 7.32 -4 8 C-4.66 7.67 -5.32 7.34 -6 7 C-5.67 6.34 -5.34 5.68 -5 5 C-4.34 5 -3.68 5 -3 5 C-2.5359375 4.0409375 -2.5359375 4.0409375 -2.0625 3.0625 C-1 1 -1 1 0 0 Z " fill="#CBE6D8" transform="translate(270,288)"/>
<path d="M0 0 C2.64 0 5.28 0 8 0 C8 1.98 8 3.96 8 6 C7.34 6 6.68 6 6 6 C5.67 4.68 5.34 3.36 5 2 C3.35 1.67 1.7 1.34 0 1 C0 0.67 0 0.34 0 0 Z " fill="#4EC29C" transform="translate(331,210)"/>
<path d="M0 0 C1.65 0 3.3 0 5 0 C5 0.33 5 0.66 5 1 C7.97 1.495 7.97 1.495 11 2 C11 2.33 11 2.66 11 3 C7.37 3 3.74 3 0 3 C0 2.01 0 1.02 0 0 Z " fill="#DCB81E" transform="translate(320,194)"/>
<path d="M0 0 C0.33 0.99 0.66 1.98 1 3 C2.65 3.33 4.3 3.66 6 4 C3 6 3 6 -1 6 C-0.67 4.02 -0.34 2.04 0 0 Z " fill="#28986A" transform="translate(346,185)"/>
<path d="M0 0 C1.65 0 3.3 0 5 0 C4.01 1.485 4.01 1.485 3 3 C3.66 3.66 4.32 4.32 5 5 C3.35 5 1.7 5 0 5 C0 3.35 0 1.7 0 0 Z " fill="#50C69B" transform="translate(267,186)"/>
<path d="M0 0 C0 0.99 0 1.98 0 3 C-3.20062687 4.60031344 -5.72271806 3.03173691 -9 2 C-5.5647952 -0.29013653 -4.014669 -0.17842973 0 0 Z " fill="#2B9F81" transform="translate(197,537)"/>
<path d="M0 0 C0.66 1.32 1.32 2.64 2 4 C1.01 4.66 0.02 5.32 -1 6 C-1.99 5.67 -2.98 5.34 -4 5 C-2.68 3.35 -1.36 1.7 0 0 Z " fill="#D4EAE7" transform="translate(476,506)"/>
<path d="M0 0 C0 3 0 3 -1 6 C-2.98 6 -4.96 6 -7 6 C-5.625 4.5 -5.625 4.5 -4 3 C-3.34 3 -2.68 3 -2 3 C-2 2.34 -2 1.68 -2 1 C-1.34 0.67 -0.68 0.34 0 0 Z " fill="#12946D" transform="translate(426,488)"/>
<path d="M0 0 C0.99 0.99 1.98 1.98 3 3 C2.67 3.99 2.34 4.98 2 6 C1.34 6 0.68 6 0 6 C0 7.32 0 8.64 0 10 C-0.66 10 -1.32 10 -2 10 C-1.34 6.7 -0.68 3.4 0 0 Z " fill="#80CEA9" transform="translate(354,400)"/>
<path d="M0 0 C3.35693737 2.23795825 3.91970563 3.2189697 5 7 C4.625 9.3125 4.625 9.3125 4 11 C4 10.01 4 9.02 4 8 C3.01 7.67 2.02 7.34 1 7 C0.67 4.69 0.34 2.38 0 0 Z " fill="#80CCAA" transform="translate(322,379)"/>
<path d="M0 0 C1.65 0.33 3.3 0.66 5 1 C4.01 2.485 4.01 2.485 3 4 C0.03 3.505 0.03 3.505 -3 3 C-2.01 2.67 -1.02 2.34 0 2 C0 1.34 0 0.68 0 0 Z " fill="#E5B717" transform="translate(383,249)"/>
<path d="M0 0 C0 0.66 0 1.32 0 2 C1.65 2 3.3 2 5 2 C5 2.33 5 2.66 5 3 C-3.57142857 3.28571429 -3.57142857 3.28571429 -7 1 C-4.50935112 0.31292445 -2.62113708 0 0 0 Z " fill="#D4B31D" transform="translate(387,228)"/>
<path d="M0 0 C-0.33 0.99 -0.66 1.98 -1 3 C-3.64 2.67 -6.28 2.34 -9 2 C-9.33 2.66 -9.66 3.32 -10 4 C-10.66 3.34 -11.32 2.68 -12 2 C-10.56342755 1.66269158 -9.12569907 1.33030409 -7.6875 1 C-6.88699219 0.814375 -6.08648437 0.62875 -5.26171875 0.4375 C-3 0 -3 0 0 0 Z " fill="#6EC8A2" transform="translate(255,67)"/>
<path d="M0 0 C0.66 0.33 1.32 0.66 2 1 C0.63016497 4.16115776 0.0109362 4.9927092 -3 7 C-2.625 4.0625 -2.625 4.0625 -2 1 C-1.34 0.67 -0.68 0.34 0 0 Z " fill="#118D6D" transform="translate(477,501)"/>
<path d="M0 0 C0.66 0.33 1.32 0.66 2 1 C2.4140625 3.06640625 2.4140625 3.06640625 2.625 5.5625 C2.69976562 6.38878906 2.77453125 7.21507812 2.8515625 8.06640625 C2.92503906 9.02353516 2.92503906 9.02353516 3 10 C1 9 1 9 0.33203125 7.1875 C0.16058594 6.465625 -0.01085937 5.74375 -0.1875 5 C-0.36667969 4.278125 -0.54585938 3.55625 -0.73046875 2.8125 C-0.86388672 1.9153125 -0.86388672 1.9153125 -1 1 C-0.67 0.67 -0.34 0.34 0 0 Z " fill="#78C9A5" transform="translate(349,365)"/>
<path d="M0 0 C2.12508244 3.18762365 2.5020163 5.26512223 3 9 C2.34 9 1.68 9 1 9 C-1.125 3.375 -1.125 3.375 0 0 Z " fill="#6BC79E" transform="translate(258,325)"/>
<path d="M0 0 C0.99 0.33 1.98 0.66 3 1 C3 3.31 3 5.62 3 8 C0.9375 5.6875 0.9375 5.6875 -1 3 C-0.67 2.01 -0.34 1.02 0 0 Z " fill="#E3F3F2" transform="translate(460,322)"/>
<path d="M0 0 C2.475 0.99 2.475 0.99 5 2 C3 5 3 5 0.875 5.6875 C0.25625 5.790625 -0.3625 5.89375 -1 6 C-0.67 4.02 -0.34 2.04 0 0 Z " fill="#108C6D" transform="translate(361,178)"/>
</svg>
